<?xml version="1.0" standalone="no"?>
<!DOCTYPE svg PUBLIC "-//W3C//DTD SVG 1.1//EN" "http://www.w3.org/Graphics/SVG/1.1/DTD/svg11.dtd" >
<svg xmlns="http://www.w3.org/2000/svg">
<metadata></metadata>
<defs>
<font id="sketch_me_free-versionregular" horiz-adv-x="799" >
<font-face units-per-em="2048" ascent="1638" descent="-410" />
<missing-glyph horiz-adv-x="508" />
<glyph horiz-adv-x="0" />
<glyph unicode="&#xd;" horiz-adv-x="508" />
<glyph unicode=" "  horiz-adv-x="508" />
<glyph unicode="&#x09;" horiz-adv-x="508" />
<glyph unicode="&#xa0;" horiz-adv-x="508" />
<glyph unicode="0" horiz-adv-x="785" d="M-5 510q6 144 0 328q21 44 29 132q10 110 21 153q28 108 162 234q43 6 44 33q12 4 59 23q35 15 59 16q56 5 130 -32q72 -35 104 -79q8 -12 27 -64q15 -39 40 -53q4 -60 28 -204q23 -141 27 -220q12 -202 -39 -401q1 -11 13 -4q11 5 10 -2q-22 -70 -96 -158 q-82 -97 -105 -148q-12 -4 -22 -4q-12 0 -23 -2q-77 -52 -121 -60q-61 -11 -113 43q-6 7 -22 35q-15 26 -28 38q-7 6 -69 44q-37 23 -48 56v28q-2 6 -22 28q1 7 9 10l13 7q-23 42 -37 113q-16 77 -30 110zM62 571q1 -10 10 -30q10 -21 12 -31q3 -12 3 -37t3 -36 q9 -37 52 -117q38 -71 43 -111q8 -3 35 -30q19 -19 43 -9v-23q82 -11 106 -11q12 10 37 21q32 13 41 18q9 43 50 56q79 175 83 240q4 11 17 11q22 430 -11 641q-71 57 -89 139q-19 1 -17 11q-301 15 -401 -334q-17 -58 -12 -296q1 -12 -3 -38q-4 -22 -2 -34zM290 58 q21 -13 39 -13q21 0 28 19q-8 -5 -33 -1q-23 3 -34 -5zM329 1307q-3 -2 24 7q14 4 16 15q-39 4 -40 -22zM385 1324q79 27 73 16q-17 13 -52 11q-36 -3 -21 -27zM647 554q35 82 6 123q-12 -84 -6 -123z" />
<glyph unicode="1" horiz-adv-x="785" d="M5 51q25 3 96 8q52 4 84 15q-20 6 -77 7q-45 1 -62 16q-3 36 0 41q32 1 64 23q-21 9 244 12q1 22 32 459q21 299 15 496q-48 -55 -245 -361q-19 -29 -64 -41q1 -3 -13 30q-6 15 7 28q-8 7 -17 -3q-10 -11 -18 -8q-20 7 -25 25q-3 13 2 44q64 46 137 167q81 134 125 177 q29 76 99 163q-8 14 -6 58q13 -7 32 11t38 7q0 -22 24 -41q48 19 58 18q16 -33 23 -59q-12 0 -29 -23q1 -26 27 -352q18 -221 2 -364q-19 -176 -12 -216q-4 -14 -14 -9q-17 9 -21 9q0 -16 30 -17q-17 -100 -6 -169q17 1 50 14q40 15 51 18q57 14 62 -50q-20 -28 -53 -23 q5 -21 31 -40q24 -18 28 -47q-27 -26 -111 -31q-142 -8 -157 -10q-10 -2 -31 -12q-19 -11 -27 -11q-16 -1 -52 8q-37 9 -53 9q-48 0 -145 -19q-83 -16 -117 -10q-7 52 -6 53zM302 1134q5 7 16 21q13 16 19 24q20 29 17 48q-53 -82 -52 -93zM406 373q-3 -28 12 -37 q-3 12 3 46q4 25 -9 30q0 -4 -3 -17q-2 -14 -3 -22zM412 417q18 4 16 29q-1 26 14 30q-9 -3 -15 5t-15 6q4 -35 0 -70zM418 493q24 18 22 89q-2 78 13 103q-10 40 1 108q11 72 5 108q4 1 8 9q2 3 10 -3q-14 36 -6 155q8 117 -12 165q-22 -46 -14 -161q7 -114 -15 -159 q12 -78 2 -199q-14 -157 -14 -215zM430 184q13 2 28 3q14 2 30 3q-5 49 -11 64q40 68 11 140q19 19 17 58q-5 69 -5 70q27 361 6 437q-47 -565 -76 -775zM570 144q34 -2 40 11l-27 1q-16 1 -13 -12z" />
<glyph unicode="2" horiz-adv-x="778" d="M-17 828q-7 3 60 11v27q-8 19 -38 17q-4 20 9 76q12 50 2 67q89 171 198 298q61 9 116 88q38 1 49 16q114 13 243 -99q48 -102 15 -257q-29 -137 -92 -211q-23 -94 -114 -208q-102 -128 -129 -194q-39 -38 -75 -123q-49 -113 -62 -136q84 -23 413 5q6 0 9 8q2 9 7 9 q69 6 88 -28q-2 -15 -27 -22q8 -2 32 -15q19 -10 34 -12q-27 -57 -28 -50q-30 2 -134 -14q-87 -12 -125 -2q-35 -15 -169 -24q-118 -9 -172 -48q-21 11 -72 -11q-1 24 -27 22q-7 42 27 61q34 -25 55 0q-2 3 -15 9q-11 4 -12 13q-6 41 33 49q3 9 -6 11q-8 2 -5 11 q34 179 55 215q7 13 30 43q21 28 31 45q8 16 22 56q12 34 22 49q5 8 21 22q17 13 23 22q10 15 42 71q28 48 46 72q12 16 39 46q31 36 44 52q54 66 71 123q9 1 11 -6q5 21 23 66q22 54 29 77q31 97 -2 160q-47 46 -110 54q-58 7 -113 -19q-54 -26 -84 -73q-32 -49 -24 -105 q-13 4 -18 -6q-7 -12 -15 -11q-31 -238 -27 -253q12 -5 15 -31q4 -25 23 -30q-14 -49 -74 -49q-6 0 -97 16q-11 2 -17 -10t-16 -12q-24 20 -29 27q-14 18 -9 45zM64 1011q-10 -35 7 -68l6 57q3 34 27 43q0 33 -17 33q-3 -13 -12 -34q-8 -22 -11 -31zM126 227q31 53 69 138 q47 107 69 149q21 12 46 56q25 42 47 54v28q92 74 149 214q-27 -15 -61 -73q-33 -56 -66 -70q-23 -47 -66 -112q-63 -94 -71 -108q0 3 -3 3q-2 1 -3 -3q-7 -28 -59 -126q-45 -84 -51 -150z" />
<glyph unicode="3" horiz-adv-x="792" d="M-2 316q18 19 20 71q3 52 22 73q19 -8 29 1q8 7 13 28q9 2 28 -9q15 -9 19 -3q47 -68 54 -268q35 -58 54 -73q26 -22 83 -28q6 -1 10 -7q5 -6 8 -5q96 6 180 124q65 91 95 198q4 2 16 13q10 8 19 11q-1 21 6 48q7 26 6 35q-3 9 -11 4q-9 -5 -13 2q-6 64 -59 113 q-92 85 -185 78q-10 -1 -55 -20q-34 -14 -65 -4q-1 5 -4 16q-3 9 -4 13q-2 13 8 25q-10 3 -22 13q-14 14 -19 17q27 39 125 62q101 23 125 51q11 4 12 -6q1 -2 0 -9v-9q7 -2 7 15t-7 15q5 6 16 15q12 10 17 15q17 19 15 48q42 24 58 91q28 126 25 117q-14 38 -6 54 q-24 51 -95 90q-10 5 -26 19q-11 9 -22 10q-51 9 -122 -18q-73 -28 -104 -71q-3 -3 -3 -15q-1 -12 -3 -15q-2 -2 -13 -3q-10 -1 -11 -3q-8 -10 -18 -46q-8 -28 -24 -37q4 -8 1 -33q-3 -20 11 -27q-9 -60 -12 -54q-21 -14 -51 -12q-31 2 -44 -6q-27 36 -78 54q13 104 75 186 q58 78 148 121t188 41q103 -3 192 -56q104 -79 99 -272q-5 -163 -76 -306q64 -88 80 -205q15 -111 -17 -223q-33 -113 -105 -196q-78 -88 -184 -122q-1 -5 3 -12q3 -6 3 -12q-3 -2 -27 -9q-17 -5 -15 -21q-5 5 -36 18q-37 -14 -84 -7q-51 8 -89 37q-3 2 -10 16q-8 15 -14 20 q-53 43 -93 110q-43 73 -44 134zM76 1110q38 14 66 88q29 76 65 91q-1 14 -12 12q-64 -58 -82 -81q-41 -54 -37 -110zM91 277q8 -70 38 -92q3 123 -36 197q-8 -51 -2 -105zM428 806q-4 -18 11 -18q16 0 12 18h-23zM529 853q2 11 21 21q16 10 15 27q-19 -1 -35 -21 q-17 -20 -1 -27zM559 716q71 -47 71 -48q-20 58 -53 72q-1 -4 -12 -9q-9 -4 -6 -15zM613 973q-4 -11 29 0q1 9 5 25q3 19 4 25q4 27 -9 39q0 -16 -19 -48q-16 -27 -10 -41z" />
<glyph unicode="4" horiz-adv-x="764" d="M-5 536q71 98 65 95q-19 26 -59 29q-3 9 1 30q3 17 -1 18q4 3 14 10q11 7 15 11q16 14 6 32q8 6 24 6q52 91 179 277q120 177 176 279q0 1 -18 23q-11 14 -5 36q25 -3 49 28t63 26q32 -59 36 -200q1 -25 2 -114q1 -67 4 -101q15 -181 11 -171q2 -5 18 -6q-1 -4 -24 -6 q12 -145 12 -136q9 3 113 23q0 -9 10 -16q12 -7 13 -13q-11 -36 -14 -94q-2 -46 -21 -78q-20 5 -107 0q-1 -75 -7 -251q-4 -128 -4 -222q-14 3 -20 -5q-9 -13 -10 -13q-8 -2 -36 12q-23 -11 -29 -36q-8 -2 -24 3q-9 3 -12 -9q-25 41 -23 122q4 105 0 127q11 44 8 119 q-3 91 3 147q-6 1 -91 11q-60 7 -99 8q-117 3 -165 -48q-49 25 -53 47zM90 690q34 41 35 65q16 -4 20 15q5 19 22 15q7 32 60 92q45 52 40 97q106 189 119 225q-6 -6 -25 -35q-14 -22 -29 -30q-19 -30 -61 -110q-41 -80 -69 -121q-9 -14 -45 -51q-30 -31 -38 -50 q-35 -83 -29 -112zM143 672h278q15 216 -6 438q-42 -88 -133 -222q-104 -152 -139 -216zM285 589q139 27 130 6q-84 25 -130 -6zM435 453q-5 -17 16 -18q-13 50 -6 48q-1 -5 -5 -15q-4 -11 -5 -15zM439 347q17 -2 16 21q-2 23 -16 26q6 -10 0 -25t0 -22zM464 184 q-3 -16 16 -15q-12 43 -5 41q-11 -29 -11 -26zM475 524q12 -139 11 -136q7 54 6 136h-17zM475 607q6 -2 2 -16q-4 -13 9 -14q16 17 12 30q-26 -14 -23 0zM475 1010q0 -295 5 -332q6 -1 12 3q7 3 12 3q-6 31 -10 89q-5 69 -8 88h6q6 1 6 0q-3 119 -23 149z" />
<glyph unicode="5" horiz-adv-x="792" d="M-4 1326q2 22 19 45q22 30 26 40q350 -8 447 11q11 1 20 -6q11 -10 14 -11q48 40 106 17q62 -24 47 -102q-24 -8 -28 -34q-54 19 -447 28q-23 -33 -30 -125q-8 -116 -16 -146q15 3 106 31q67 21 110 20q153 -5 262 -149q104 -138 105 -315q2 -363 -277 -561 q-33 -4 -71 -28q-47 -28 -65 -34q-5 4 -23 4q-18 1 -22 7q-49 -20 -57 -22q-127 33 -186 90q-33 77 -35 162q-1 93 35 155q1 21 -12 28q8 14 23 37q17 26 24 38q26 45 27 90q32 4 52 -21q21 -26 -1 -47q13 0 21 -9q14 -17 18 -20q-53 -92 -53 -189q0 -100 59 -173 q114 -50 239 11q95 46 174 142q3 5 80 221q-8 19 -8 106q0 68 -32 97q-24 100 -89 165q-67 68 -160 79q-7 -1 -10 7q-2 9 -7 10q-190 22 -294 -164q-39 -6 -51 17q-3 8 -6 45q33 14 34 68q-29 5 -33 28q-1 9 5 45q6 40 -8 136q-15 96 -9 130q0 13 -11 24q-11 12 -12 22z M80 301q-2 92 24 153q-103 -208 -12 -334q-1 28 -6 95q-5 56 -6 86zM99 1244q-6 -41 10 -65q35 86 0 141q0 -16 -4 -39q-6 -31 -6 -37zM154 975q17 2 29 9q16 9 5 19q-2 -4 -21 -10q-14 -5 -13 -18zM279 1020q11 2 49 1q35 -1 59 5q13 -16 57 -24q48 -10 61 -22 q-39 49 -108 61q-70 13 -118 -21zM511 986q-2 -15 10 -21q4 -2 12 -4q9 -2 12 -3q-1 17 -11 20q-18 4 -23 8z" />
<glyph unicode="6" horiz-adv-x="891" d="M19 264q-1 29 18 37q-56 159 -6 408q24 122 107 267q24 42 73 119t69 114q142 136 168 154q104 73 234 65q2 -3 9 -12q5 -7 7 -12q6 -15 -3 -31q2 -6 12 2q11 9 18 -2q-2 -12 4 -53q5 -37 -4 -57q-2 -2 -18 -6q-12 -3 -12 -12q-48 15 -43 12q-5 0 -17 -4q-9 -4 -20 -2 q-12 -4 -12 -18q-146 -47 -266 -179q-39 -43 -191 -253q-6 -24 -29 -86q-21 -57 -29 -90q-28 -107 10 -178q11 12 66 83q44 58 78 89q102 98 215 72q13 12 42 18q20 4 25 24q178 -10 238 -127q3 -7 41 -54q25 -31 26 -68q0 -4 -6 -13q-6 -10 -7 -12q-3 -21 -1 -95 q1 -62 -11 -100q-22 -68 -24 -60q-108 -108 -200 -153q-130 -64 -300 -55q-20 26 -59 48q-50 27 -62 38q-28 22 -67 84t-67 86q1 10 -6 12zM116 332q-2 -67 53 -138q53 -69 111 -82q117 -25 270 45q156 72 175 168q12 58 -34 119q-3 4 -88 95q-7 7 -26 30q-17 21 -28 32 q-35 34 -68 35q-6 0 -115 -49q-17 -7 -58 -28q-35 -17 -58 -27q-13 -26 -81 -95q-51 -54 -53 -105zM189 971q30 21 98 98q-12 2 -25 -4q-13 -5 -24 -3q-36 -55 -49 -91zM280 63q54 -37 61 0q-7 -1 -32 6q-20 5 -29 -6zM390 63q7 -7 22 -3q15 3 15 16q-4 -2 -20 -5 q-13 -2 -17 -8zM421 1263q22 23 188 104q-67 -2 -122 -32q-53 -29 -66 -72zM609 599q78 -66 147 -170q13 82 -39 127q-39 35 -108 43z" />
<glyph unicode="7" horiz-adv-x="771" d="M-16 1330q90 1 102 16q-6 5 -28 -5q-21 -11 -34 0q-10 15 -6 38q5 22 17 30q27 -8 96 2q63 9 96 -8q3 0 5 17q54 0 159 8q111 8 163 9q4 -34 40 -36q26 -2 62 13q9 -22 34 -34q15 -39 1 -68q-5 -9 -17 -24q-13 -17 -18 -26q-19 -32 -33 -113q-17 -96 -29 -130 q-4 -11 -15 -29q-10 -18 -14 -27q-3 -11 -22 -67q-12 -37 -23 -63q21 -6 18 -25q-5 -29 -1 -37q-5 -6 -39 -6q24 -29 90 -11q0 -9 11 -25q10 -14 6 -32q-11 -20 -32 -17q3 -1 -42 12q-15 0 -22 -14q1 1 -6 -20q-2 -1 -51 -6q-133 -266 -242 -570q-19 -8 -55 -46 q-30 -31 -58 -33q-5 8 -23 28q12 26 40 57q-2 65 45 166q53 114 62 178q9 14 85 203q-19 11 -62 10q-37 0 -57 19q0 -1 6 22q-5 5 -12 3q-14 -3 -22 -3q-8 28 -3 48q6 26 31 26q-9 10 -2 24q2 4 7 11q5 8 6 10q21 -2 86 7q54 7 78 -2q2 1 5 4q3 2 6 2q49 201 158 491 q-19 21 -55 14q-10 -2 -35 -10q-24 -7 -39 -10q-131 -24 -339 -28q-13 -12 -38 -12q-24 1 -30 -5q-6 14 -5 39q1 23 -6 35zM249 353q90 115 130 282q-15 0 -22 6q-91 -232 -108 -288zM255 726q-6 -1 52 -6q42 -4 50 17q-81 17 -102 -11zM402 731h22v23q-26 4 -22 -23z M436 822q20 3 26 29q8 39 7 38q-19 -6 -23 -26q-8 -36 -10 -41zM475 1025q15 -7 18 15q4 22 -12 19q1 -27 -6 -34zM492 1064q24 26 85 170q-4 0 -9 11q-4 8 -14 6q-9 -37 -35 -94q-21 -47 -27 -93z" />
<glyph unicode="8" d="M10 368q20 186 220 393q-15 12 -20 27q-5 18 8 33q-26 3 -41 6q-226 156 -167 351q14 46 70 102q65 64 79 88q121 52 170 65q96 24 169 -5q12 -15 49 -36q34 -20 47 -41q30 -52 39 -152q8 -97 -10 -158q3 8 -47 -66q-106 -154 -113 -160q248 -163 273 -322 q21 -128 -33 -257q-58 -138 -163 -178q-17 -6 -55 -12q-42 -7 -58 -11q-81 -24 -95 -24q-155 -8 -244 83q-97 97 -78 274zM58 1029q17 -2 18 -6q28 -69 101 -131q-79 186 -90 316q-41 -51 -29 -179zM93 261q-3 -82 88 -126q93 -46 162 13q78 2 140 48q19 15 50 44 q34 33 49 45q0 64 18 190q-28 229 -191 280q-8 -6 -19 -17q-13 -13 -18 -17q-23 -19 -52 -20q-9 -19 -150 -205q-95 -125 -77 -235zM123 499q35 37 78 113q-4 0 -9 4q-4 3 -9 2q-5 -16 -38 -59q-27 -34 -22 -60zM141 1172q19 19 32 62q11 39 10 69q-20 -26 -42 -131z M224 1178q-10 -131 48 -256q-2 -7 -14 -16q-10 -8 -10 -20q13 1 25 -11t23 -13q8 14 33 27q31 15 38 21q2 2 3 12t3 12q19 18 58 53q39 34 56 51q61 61 71 122q1 4 -6 9q-6 5 -6 9q0 13 8 38q8 26 10 39q-43 68 -70 89q-51 43 -103 1q3 13 -10 16q-18 6 -20 7 q-125 -31 -137 -190zM534 177q9 -6 24 2q14 9 18 22q-38 -17 -42 -24zM635 303q33 67 39 100q13 62 -27 96q7 -41 -5 -114q-11 -69 -7 -82z" />
<glyph unicode="9" horiz-adv-x="792" d="M-8 1063q23 74 18 125q43 15 47 65q16 9 83 95q30 -3 24 18q24 4 120 48q79 35 135 29q91 -10 184 -95q36 -2 41 0q-4 -23 30 -24q3 -11 -3 -17q-8 -9 -9 -12q42 -71 55 -161q4 -29 10 -160q2 -23 -4 -151q-3 -93 10 -151q37 -154 -59 -356q8 -41 -36 -190q-6 -7 -30 -19 q-15 -7 -17 -28q-26 -7 -76 -35q-46 -26 -78 -31q-123 -16 -350 78q-43 49 -58 160q-17 138 -31 172q-1 51 47 83q10 -2 30 -24q14 -1 21 14q9 19 15 22q16 2 47 -6q0 -1 2 -53q1 -35 22 -42v-75v-73q0 -6 11 -7q11 -2 13 -5q-2 -27 5 -54t6 -53q50 -57 101 -64 q50 -6 113 34q21 13 49 41q34 32 40 36q53 163 83 297q-12 45 -14 157q-1 107 -16 151q-98 -97 -219 -112q-29 9 -108 23q-68 13 -94 24q-77 96 -107 119q-45 158 -53 207zM84 1085q-14 -81 8 -152q24 -76 84 -119q107 -77 308 6q9 19 60 80q41 51 47 92q1 10 -4 19 q-7 10 -8 17q-19 193 -18 189q-15 12 -48 41t-51 42q-64 45 -132 36q-6 -1 -12 -12h-59q-69 -28 -117 -96q-44 -63 -58 -143zM437 1384q-4 1 39 -20q20 -10 38 2q-11 0 -40 15q-24 11 -37 3zM516 115q-4 -12 16 -13q-11 33 0 30q-13 -5 -16 -17zM532 1336q10 -10 38 -53 q23 -34 45 -48q-9 39 -31 68q-25 34 -52 33zM627 844q-4 -41 23 -42q6 8 -3 22q-9 13 -20 20z" />
<glyph unicode="A" horiz-adv-x="898" d="M-1 82q82 200 172 550q115 443 154 567v10q0 88 69 202q2 -2 9 -4q6 -3 8 -5q9 -6 6 -20q114 40 115 40q15 1 17 -28q8 2 20 23q7 13 20 13q5 0 11 -2q5 -58 40 -86q-3 -27 -3 -57q0 -101 33 -245q52 -230 56 -299q7 -96 42 -249q42 -182 50 -238q2 -14 5 -46 q3 -30 5 -46q9 -51 36 -80q-33 -47 -35 -51h-7q-65 0 -96 -35q-53 19 -45 17q-7 7 -5 13q4 14 5 16q-25 -3 -45 25q-21 28 -30 27q1 14 1 30q0 77 -16 198q-22 177 -25 230q-142 16 -252 17q-104 -442 -109 -527q-11 3 -16 -4q-2 -2 -4 -6q-2 -5 -3 -7q-7 4 -21 4 q-21 0 -60 -9q-21 -5 -39 -5q-35 0 -57 21q5 26 -6 46zM73 71q36 58 86 210q54 167 86 231q9 107 54 262q63 217 72 259q29 130 29 166v6q-93 -217 -181 -552q-27 -103 -73 -291q-50 -205 -73 -291zM366 752q30 0 85 -7q34 -4 65 -4h21q-6 77 -68 372q-13 -49 -54 -178 q-35 -111 -49 -183zM377 1245q15 13 26 45q16 45 20 52q-2 6 -10 6h-2q-26 -50 -34 -103zM555 964q55 -280 51 -269q0 184 -51 269zM560 1142q1 -5 2 -15q0 -10 1 -14q3 -16 14 -17q-1 38 -17 46zM612 918v-6q0 -25 17 -22q2 11 -5 17q-12 10 -12 11zM618 580 q76 -412 80 -423v8q0 106 -25 218q-5 25 -23 96q-14 59 -21 96q-2 7 -11 5zM623 867q94 -377 92 -373q-3 42 -18 100q-20 75 -22 89q-2 13 -9 56q-5 38 -10 58q-13 65 -33 70zM737 147q2 -36 29 -36h6q-12 76 -34 109q1 -12 0 -36q-1 -19 -1 -29v-8z" />
<glyph unicode="B" d="M7 44q-1 8 -1 27q0 85 19 385q10 157 10 310q0 195 -16 386q-1 10 -1 25q0 33 5 85q4 41 4 69q0 18 -2 30q-1 6 -4 18q-3 10 -3 16q-2 19 13 36q21 -11 58 3q7 3 12 3q4 0 7 -2q9 -5 15 -27q19 -4 33 5q19 11 25 12q12 -9 29 -9q18 0 29 9q188 -12 285 -191q6 -36 6 -74 q0 -109 -53 -234q-16 9 -29 -15q-20 -36 -29 -43q-1 -1 -9 0q-7 2 -8 0q-4 -5 -12 -24q-6 -15 -17 -22q-10 -7 -31 -8q-20 -1 -33 -10q7 -12 33 -8q28 3 43 -10q88 0 163 -53q74 -54 92 -126q9 -5 17 -24q8 -18 18 -23q6 -33 6 -67q0 -83 -35 -170q-19 -49 -105 -198 q-19 -7 -68 -42q-41 -28 -77 -33q-7 -1 -11 -10l-6 -14q-11 7 -31 -3q-31 -13 -33 -14q-8 -2 -10 4q-1 2 -2 13q-2 -6 -19 -9q-16 -3 -15 -14q-23 26 -89 26q-13 0 -27 -1q-39 -3 -56 3q-26 7 -32 36q-10 0 -16 -13q-6 -14 -13 -16q-6 -1 -13 4q-7 4 -16 2zM80 939 q-4 -57 -4 -103q0 -60 7 -101q25 166 25 308q0 124 -19 231q-3 -7 -3 -38.5t3 -88.5v-19q0 -58 -9 -189zM118 201q8 -1 17 5q13 -29 56 -31q36 -1 60 14q11 -1 22 -1q74 0 141 30q88 40 133 122q2 10 -1 19q-5 10 -5 16q19 25 19 63q0 24 -8 54q-16 62 -51 109q-6 1 -12 -3 q-7 -3 -12 -3q3 15 -16 22q-17 7 -13 25q-44 1 -139 40q-23 -11 -51 -11q-8 0 -17 1q-42 4 -71 28q-6 0 -12 -3t-11 -3q1 -15 1 -36q0 -124 -30 -457zM135 1129q29 48 29 112q0 62 -29 97q2 -52 2 -104.5t-2 -104.5zM164 810q15 6 56 19q36 12 55 21q61 26 81 70 q60 48 74 129q4 24 4 49q0 53 -20 107q-19 4 -18 0q3 85 -157 145q-3 -4 -7 -19q-3 -13 -10 -16q2 19 -17 17q4 -29 4 -64q0 -82 -21 -202q-25 -146 -25 -224q0 -18 1 -32zM216 90q25 7 60 11q50 5 54 6q58 9 84 47q-21 -9 -105 -21q-64 -10 -93 -43zM419 723q-4 4 122 -76 q-2 30 -49 54q-40 21 -73 22zM477 1205q3 13 -6 19q-16 10 -17 10zM547 642q4 -24 19 -24h4q1 4 1 7q0 17 -18 17h-6z" />
<glyph unicode="C" horiz-adv-x="764" d="M-3 828q39 224 67 312q54 166 153 246q65 13 85 57h1q4 0 4 -6q21 6 42 6q50 0 103 -34q24 -17 60 -48q47 -42 55 -48q10 -44 55 -117q42 -70 52 -120q-16 -19 -84 -28q-59 -7 -68 -40q-10 4 -18 3q-12 -3 -22 -3q-2 8 -16 30q-12 19 -12 32q0 4 6 9q6 4 5 8 q-7 34 -35 79q-35 57 -44 79q-40 -13 -45 12q-5 -4 -70 -28q-39 -15 -37 -46q-54 -39 -78 -126q-1 -1 -29 -156q-7 -35 -8 -82q-2 -58 -4 -76q-3 -26 -2 -57q0 -62 10 -142q20 -147 21 -195q69 -197 73 -203q21 -18 47 -18q18 0 38 8q12 5 41 21q25 13 38 17q89 192 90 192 v-1q-1 4 1 62q2 36 -18 46q23 44 22 50q16 0 40 -17q23 -17 45 -16q7 0 22 7q18 9 23 10q30 10 45 -23q-21 -200 -36 -258q-35 -130 -127 -193q-10 1 -23 1q-31 0 -75 -8q-78 -15 -94 -16q-12 17 -29 18l-44 -1q-92 31 -92 39q0 1 1 1q-12 9 -28 36t-28 37q-65 176 -68 254 v12q0 29 3 100q1 21 1 40q0 47 -4 79q-2 18 -2 101q-1 69 -9 102zM290 1352q65 26 77 26q3 0 3 -1t-1 -2v-17q7 0 24 4q14 4 27 2q-17 24 -55 24q-7 0 -14 -1q-47 -5 -61 -35zM369 83q4 -1 9 -2q14 0 40 10q34 14 53 4q41 14 69 63q8 14 22 45q14 30 22 44q-2 7 -12 6 q-30 -51 -92 -94q-4 -3 -54 -35q-34 -23 -57 -41zM386 1302q47 -16 79 -68q11 -16 26 -47q17 -36 25 -49q-6 61 -40 152q-7 2 -22 10q-18 8 -25 11q-10 4 -19 4q-15 0 -24 -13zM465 208h1q11 0 18 14q8 15 21 14q-3 7 -6 28q-1 13 -11 17q3 -20 -10 -38q-14 -19 -13 -35z " />
<glyph unicode="D" horiz-adv-x="820" d="M-6 132q16 44 16 110v22q-1 19 -5 74q-4 50 -5 82q-16 3 35 35q-14 6 -26 -4q-9 -7 -15 -1q25 687 25 903q0 37 -1 60q15 23 38 23q7 0 15 -2q43 -12 58 -3q42 -27 189 -94q121 -55 176 -106q51 -8 89 -47q68 -70 69 -71q74 -229 74 -449q0 -259 -109 -426 q-32 -21 -96 -95q-56 -65 -104 -87q0 1 -12 5q-8 3 -5 13q-58 -30 -204 -34q-139 -3 -190 -37q-10 11 -10 41q0 13 2 29q6 52 -4 59zM47 737q-1 -12 -1 -39q0 -68 7 -231q0 -7 -2 -21q-3 -16 -3 -21q-2 -25 17 -34q0 32 35 957q-2 6 -8 6h-4q-19 -120 -26 -309 q-9 -237 -15 -308zM87 238q0 -6 -1 -11q0 -24 8 -36q12 40 12 87v7q-8 11 -10 8q-3 -2 4 -14q-10 -11 -13 -41zM105 672q0 -11 7 -11q6 5 7 21q1 18 -13 14zM135 502q22 3 24 -11q-6 -37 -6 -97q0 -26 1 -57q2 -48 2 -83q0 -43 -3 -69h158q14 3 31 13q22 14 28 17 q111 47 135 70q66 61 88 270q6 47 5.5 101t-5.5 115q-13 149 -52 195q-19 22 -84 80q-57 50 -81 85q-60 16 -106 59q-4 0 -6 -6q-3 -5 -5 -6q-8 24 -41 40q-54 27 -59 30q4 -202 4 -387t-4 -353q-7 6 -14 5q-9 -1 -10 -11zM264 1301q19 -26 100 -76q4 26 -36 45 q-61 29 -64 31zM505 1160q-2 3 24 -34q15 -21 35 -24l-22 37q-14 19 -37 21z" />
<glyph unicode="E" horiz-adv-x="849" d="M6 207q2 37 10 112q7 71 8 100q3 19 -12 18q32 297 32 539q0 217 -26 388q13 34 12 46q91 9 120 9q14 0 15 -2q0 -1 -1 -1v-18q96 8 280 12q177 4 274 12q26 -13 35 -41q-6 -3 -20 -16q-11 -11 -21 -13q-3 -28 6 -53q-16 3 -24 -8q-3 -3 -6 -10q-4 -8 -5 -11 q-27 0 -70 10q-20 4 -39 4q-13 0 -25 -2q-6 -1 -29 -1q-57 0 -222 7q-25 -13 -65 -13q-39 0 -46 -5q4 -67 5 -162q0 -32 -1 -66q-1 -49 -1 -90q0 -82 3 -130q241 21 251 23q4 -51 5 -47q-91 -11 -103 -11h-1q15 -20 48 -17q10 1 30 5q21 5 32 6q4 -27 24 -24 q-27 -55 -112 -57q-130 -2 -162 -12q-19 -92 -28 -257q-10 -196 -19 -262q53 -2 108 -2q101 0 207 8q20 1 104 3q65 2 100 8l16 4q11 3 18 4q21 2 36 -13q0 -6 -5 -16q-3 -9 -1 -19q-4 -3 -10 -8q-5 -4 -7 -5q-7 -4 -24 1q-3 -17 14 -24q19 -8 21 -17q1 1 -17 -18 q-10 -11 -24 -11q22 -23 -5 -45q-8 -7 -25 -17t-22 -14q0 9 -15 12q-14 3 -14 12q-12 -6 -33 -6q-19 0 -47 5q-22 4 -39 4q-27 0 -45 -9q-28 10 -109 10h-10q-72 0 -108 13q-89 -28 -87 -28q-16 -3 -28 -3q-35 0 -42 25q-5 1 -12 -3q-6 -3 -11 -3q-37 46 -37 154q0 17 1 36z M82 1160q20 64 20 117q0 15 -2 28q-2 6 -10 6h-2q-11 -59 -11 -101q0 -29 5 -50zM141 99q-1 -3 -1 -6q0 -5 3 -10q5 -7 3 -13q196 5 269 29q-64 2 -133 2t-141 -2zM193 740q4 0 6 -5q3 -6 6 -7q1 6 16 7q14 1 13 11q-42 -12 -41 -6zM438 134q85 -8 144 -8q30 0 54 2 q-22 21 -92 21h-7q-70 -1 -99 -15zM648 128q1 0 19 -5q4 -2 7 -2q6 0 9 7q-8 2 -6 12h-3q-20 0 -26 -12z" />
<glyph unicode="F" horiz-adv-x="813" d="M4 31q29 313 29 940v42q11 50 11 130q0 99 -17 244q9 2 16 13q10 13 14 16q33 -7 35 -29q65 2 339 30q139 14 239 14q45 0 82 -3q-5 -35 -6 -39q-8 -22 -29 -26q0 -5 4 -19q4 -13 2 -16q-22 -39 -90 -39h-3q-12 0 -58 4q-35 2 -54 0q-2 0 -101 -25q-27 -7 -49 -7 q-25 0 -43 9q1 -16 30 17q-21 17 -53 5q-36 -13 -53 -5q-42 -348 -46 -444q26 7 84 9q60 3 85 9q5 1 13 9q7 7 11 8q7 2 11 -5q5 -6 6 -6q2 -1 9 3q8 5 12 6q16 5 26 -15q-13 -21 -13 -60q0 -51 -5 -69q-57 -26 -118 -30q-7 0 -56 -1q-36 -1 -65 -4q-4 -64 -16 -335 q-10 -234 -19 -360q3 1 -53 0q-1 15 -1 37q0 71 14 217q11 105 11 181q0 56 -6 96q17 41 17 110v8v34q0 64 6 94q-21 21 -23 35q-2 11 13 13t16 10q-2 28 -2 73t2 108q1 27 1 51q0 71 -7 113q-51 -364 -53 -450q-9 -494 -41 -701q-32 2 -29 -18q-6 1 -13 11q-6 8 -16 7z M78 1031q-3 -4 -3 -8q0 -5 5 -10q12 -3 17 13q5 17 -5 22q-1 -1 -14 -17zM86 1202q-1 -18 -1 -34q0 -56 13 -97q18 228 29 269q-28 1 -35 -6v-8q0 -32 -6 -124zM314 820q-3 -17 24 -19h2q23 0 20 19q-23 -4 -46 0zM343 1340q-2 -3 -2 -6q0 -8 17 -8q21 0 14 14h-29z M378 1328q79 13 76 12q5 -12 12 -18q0 18 32 17q38 -1 49 13q-22 4 -39 4q-27 0 -42 -10q-6 0 -24 1h-25q-28 -2 -39 -19zM553 1352q-2 -14 10 -14q3 0 7 1q14 3 14 12q0 3 -1 6q-3 1 -6 1q-5 0 -10 -3q-7 -5 -14 -3z" />
<glyph unicode="G" horiz-adv-x="813" d="M-2 505q-1 20 -1 39q0 183 59 366q8 62 51 160q40 93 43 134q5 11 12 2q9 -13 10 -13q7 5 4 19q-1 4 -2 9l-2 5q57 84 194 189q9 -2 20 -2q29 0 74 14q27 8 47 8q22 0 36 -9q57 -36 156 -244q-3 5 1 -19q2 -17 15 -20q-5 -6 -13 -25q-8 -18 -14 -25h-8q-36 0 -94 -8 q-32 -5 -55 -5q-15 0 -26 2q-6 20 -6 84v6q0 48 -16 71q-22 31 -52 31q-18 0 -40 -13q-17 -10 -46 -36q-34 -29 -45 -37q1 -14 -13 -27q-13 -12 -10 -29q-36 -28 -62 -118q-27 -97 -54 -126q-19 -98 -19 -208q0 -70 8 -145q8 -79 55 -334q91 -59 200 -61q76 60 123 163 q49 110 49 234v19q1 0 1 -1q0 -3 -44 -3q-50 0 -157 4q3 -2 -50 77q17 13 17 47q0 7 -1 15q-1 15 -1 28q0 31 7 43q13 3 27 -1q17 -4 23 -4v-28q20 9 60 9q19 0 42 -2q45 -4 75 -4q26 0 40 3q63 11 66 11q5 -19 5 -33q0 -31 -22 -45q17 -279 17 -277q-36 -181 -111 -250 q-2 -2 -3 -12q0 -13 -2 -21q-68 -63 -113 -85q-51 -24 -114 -24q-24 0 -51 4q-49 52 -160 111q-121 142 -130 387zM43 543q-1 -25 13 -26q-2 4 1 40q1 25 -12 26q1 -4 -2 -40zM44 462q0 -24 12 -28q3 16 3 30q0 30 -14 47zM56 589q42 158 42 264q0 34 -4 63 q-39 -164 -39 -297q0 -15 1 -30zM161 1071q20 3 25 21q2 7 4 21q3 17 4 25q18 11 36 52q18 38 14 48q-51 -53 -83 -167zM216 129q21 -9 67 -44q38 -29 66 -34q6 -1 12 -1q32 0 74 26q67 41 86 47q5 33 32 68q43 55 46 60q8 13 17 59q7 39 27 57q0 -3 3 -3q2 -1 3 3 q-12 5 -17 11q15 55 15 111q0 28 -4 56q-16 -22 -33 -128q-17 -108 -172 -327q-63 -11 -83 -17q-87 50 -139 56zM388 606q12 3 35 3q26 0 66 -4q24 -2 44 -2q37 0 60 8q-20 23 -61 25q-58 2 -77 8q-4 -17 -44 -18q-17 0 -22 -3q-4 -3 -4 -7t3 -10zM399 700q-2 -26 23 -28 q3 4 3 7q0 5 -5 10q-8 9 -21 11z" />
<glyph unicode="H" horiz-adv-x="803" d="M7 233q15 196 15 205q0 12 -6 37q-6 24 -6 37q0 55 8 192q5 84 5 140q0 24 -1 43v7q0 36 7 178q3 64 3 117q0 68 -5 118q-5 57 -5 54q2 27 28 43q-2 1 -4 1q-8 0 -7 -22q0 -47 34 -195q-1 -1 -2 -1q-3 0 -3 12q0 30 16 131q2 14 17 40q12 22 12 39q6 -6 15 -4t13 10 q3 1 5 1q7 0 7 -9q1 -25 -1 -20q8 0 15 11q6 10 14 11q-7 0 34 -28q-8 -171 -11 -523q40 -17 99 -17q31 0 68 5q23 3 83 13q49 9 73 11q1 85 1 153q0 181 -6 244q-1 14 -1 26q0 35 7 53q11 32 45 29q21 -37 34 -45q-17 -53 -17 -132q0 -19 1 -39q1 -21 6 -90q4 -57 4 -92 q18 68 23 214q4 135 28 207q53 -18 63 -23q1 -22 6 -23q-20 -40 -34 -45q-11 -79 -11 -193q0 -46 2 -97q4 -136 4 -219q0 -47 -1 -76q-1 -12 3 -39q4 -26 3 -41q-1 -12 -9 -39q-8 -26 -9 -40q-2 -47 -3 -152q0 -115 -2 -161q-1 -27 -1 -48q0 -69 12 -88q-9 -22 -2 -58 q8 -38 2 -56q-37 -17 -57 -17h-5q2 10 -12 12q34 579 34 744v17q-23 -122 -28 -342q-5 -221 -28 -346q-11 -7 -30 -7q-13 0 -16 -10q-15 17 -15 65q0 14 1 31q2 24 2 44q0 45 -11 65q1 7 17 28q-7 42 -7 106q0 43 3 96q6 91 6 147q0 34 -2 55q-7 -1 -17 -1q-20 0 -55 3 q-69 5 -93 6h-18q-100 0 -129 -31q-7 -2 -10 4q-3 7 -7 7q3 -32 3 -72q0 -84 -13 -200q-18 -165 -18 -250v-23q8 -10 12 -28t10 -23q-61 -59 -67 -59q-1 0 -1 2q-16 6 -49 4q-31 -2 -53 7q-17 53 -17 134q0 31 2 65zM67 654q-3 -46 -3 -131q0 -148 9 -415q16 60 16 143 q0 47 -5 101q-2 -8 12 296q17 376 17 459v18q-5 -14 -14 -63q-7 -34 -20 -56q2 -22 2 -42q0 -53 -14 -89q14 -34 14 -82q0 -11 -1 -24q-2 -18 -7 -57q-4 -37 -6 -58zM152 1029q-4 -73 -4 -132q0 -93 10 -147q-3 273 -6 279zM221 727q10 2 289 18q-31 21 -142 22h-37 q-32 0 -43 -1q-49 -7 -67 -39zM574 636q-4 -17 -4 -30q0 -20 9 -32q10 65 10 101q0 25 -5 35q1 -5 1 -11q0 -23 -11 -63zM584 767q4 -5 1 -25q-3 -16 11 -20l1 31q0 14 -10 14h-3z" />
<glyph unicode="I" horiz-adv-x="304" d="M0 113q6 6 15 20t14 20q2 208 12 387q1 10 1 23q0 33 -4 87q-4 52 -4 85q0 13 1 24q1 8 1 17q0 27 -5 68q-7 65 -8 88q0 29 6 85q6 57 6 83q-1 107 -12 144q-1 4 -17 6q16 10 16 48q0 8 -1 17q-4 51 -21 56v6q0 33 22 49q13 10 28 10q17 0 37 -13q-21 -125 -21 -305 q0 -152 15 -342q9 48 9 165q0 67 -3 156q-1 43 -1 82q0 167 24 255q11 1 20 1q35 0 49 -12q-1 -16 6 -17q-1 -11 -7 -22q-9 -14 -10 -19q3 -63 3 -217q0 -77 -1 -178v-49q0 -239 9 -364q19 -240 18 -314v-21q-1 -12 -5 -34q-5 -23 -6 -34v-10q0 -31 16 -54q-14 -36 -45 -52 q-41 -22 -53 -35q-45 35 -87 35h-5q-3 4 -1 41q2 32 -11 34zM70 153q5 -17 17 -23v-1l-3 33q-2 18 -14 20q-2 -6 -2 -13.5t2 -15.5zM75 367q13 -49 6 -47q-1 7 5 29q3 14 -11 18zM81 205q9 8 11 19q3 13 -11 16q-5 -8 -5 -18q0 -13 5 -17zM81 372q16 96 16 181t-16 160 q-1 -164 -1 -249t1 -92zM133 471q-6 -63 -6 -109q0 -80 18 -105q-1 8 -1 34t1 70v17q0 58 -12 93z" />
<glyph unicode="J" d="M14 715q6 5 28 9q19 5 24 14q3 -2 2 -11q-1 -11 4 -18q17 8 115 17v1q-3 0 -46 -150q0 -5 6 -117q4 -83 13 -134q27 -152 114 -152h5q34 2 97 35q4 2 4 9q1 7 2 8q4 2 12 -1t5 -5q27 18 51 66q28 54 47 72q17 110 36 428q18 292 45 423q-21 108 -21 139q0 82 68 82 q10 0 22 -2l22 -18q14 -11 35 -5q1 -9 1 -19q0 -20 -4 -47q-8 -51 -8 -66q-1 -19 7 -61q5 -27 5 -46q0 -8 -1 -14q-6 -51 -6 -58q6 -54 6 -126q0 -8 -6 -26t-5 -26q5 -75 5 -146q0 -272 -69 -504q-20 -11 -27 -42q-9 -42 -13 -50q-9 -16 -43 -39q-30 -20 -37 -41 q-30 -13 -127 -45q-89 -29 -138 -53q-1 1 -53 3q-33 2 -39 26q-21 3 -23 -12q-127 134 -127 474q0 104 12 228zM61 421q-1 -5 -1 -9q0 -17 17 -19q-1 10 0 45q0 21 -11 30q3 -9 -5 -47zM100 255q8 -96 69 -121q-1 5 -69 121zM302 128q7 -7 21 1q10 5 13 -12q5 2 70 16 q40 9 62 41q-12 9 -29 9q-22 0 -51 -13q-11 -5 -45 -23q-27 -14 -41 -19zM491 197q0 7 13 23q11 13 -1 23q0 -6 -12 -23q-5 -7 -5 -12.5t5 -10.5zM514 249q43 53 67 162q4 20 16 84q8 48 15 70q-29 -46 -55 -159q-29 -126 -43 -157zM618 634q21 23 30 61q4 17 4 33 q0 25 -11 44q-5 -25 -12 -72q-6 -42 -11 -66zM639 819q2 -17 2 -18q3 -1 5 -1q7 0 6 10q-1 15 6 14q0 -3 3 -4q2 0 3 4q-7 11 -6 58q-18 -1 -19 -37q-1 -5 -1 -12t1 -14zM647 1048q-5 -50 -5 -87q0 -50 10 -74q11 34 11 70q0 43 -16 91z" />
<glyph unicode="K" horiz-adv-x="884" d="M9 73l7 21q7 16 9 28q8 36 -16 49q2 24 16 200q12 135 13 199q26 243 26 453q0 82 -4 158q16 64 16 116q0 26 -4 50q9 5 23 57q13 0 17 12q25 -12 51 -7q8 1 24 6q18 4 28 6q14 -16 14 -40q0 -18 -8 -41q-24 -72 -24 -90q-1 1 -2 1q-13 0 -15 -292q40 63 135 227 q85 144 139 230q9 -1 52 -35q9 6 30 28q17 18 33 24q16 -11 19 -37q1 -7 2 -22t2 -21q1 0 -23 -6q-215 -308 -332 -520q2 -6 12 -14q9 -8 11 -14q21 -87 92 -176q121 -152 120 -150q19 -11 49 -54q27 -38 53 -49q6 -29 62 -84q55 -54 58 -87q22 -7 38 -31q3 -6 12 -22 q8 -14 13 -21q9 2 17 -3q9 -5 17 -3q1 -7 1 -14q0 -29 -12 -77q-19 8 -28 1q-4 -4 -12 -24q-11 6 -46 12q-27 6 -34 16q-10 -2 -23 -17q-12 -14 -23 -17q-77 87 -213 292q-128 195 -215 285q5 -51 4 -127q0 -140 -15 -364q-10 -12 -31 -14q-23 -1 -32 -9q-22 40 -23 51 q-6 -4 -11 -29q-6 -25 -18 -33q-14 -2 -25 7q-15 12 -26 15zM83 119q20 8 29 52q10 54 10 145q0 51 -3 115q-5 99 -5 165q0 59 4 89q-4 0 -8 3q-5 3 -10 2v-12q0 -78 -17 -559zM100 816q2 -10 2 -24q0 -16 1 -20q2 -21 20 -30q5 13 5 28q0 21 -10 46h-18zM100 867 q32 22 36 84q1 11 1 56q0 34 3 55q6 36 11 129q5 87 12 128q-3 0 -8 3q-4 3 -9 2q-29 -81 -33 -222q-4 -182 -13 -235zM186 810q89 165 126 200q2 24 33 62q25 31 25 52q0 3 -1 6q-9 -17 -46 -66q-29 -40 -40 -71q-56 -66 -69 -85q-30 -46 -30 -81q0 -9 2 -17zM192 702 q4 -8 7 -23q5 -19 6 -22q8 -23 27 -18q-6 7 -18 33q-11 22 -22 30zM226 610q6 1 16 -16q8 -14 18 -1q-2 2 -8 10q-7 9 -9 11q-11 12 -17 -4zM260 565q6 -8 17 -12q3 18 -17 29q-4 -4 -4 -8.5t4 -8.5zM283 536q6 -6 22 -38q13 -24 30 -30q-2 25 -19 48t-33 20zM363 1181 q-4 -4 28 45q18 28 41 18q2 8 -8 13q-8 4 -4 16q-58 -52 -58 -86q0 -3 1 -6zM375 502q-1 -29 62 -109q0 1 86 -114q11 -15 55 -94q31 -58 65 -83q-89 194 -183 280q-15 44 -85 120zM375 1142q0 -15 17 -12v23q-17 3 -17 -11zM392 376q1 -22 23 -23q3 19 -23 23zM432 319 q7 -26 22 -28q0 32 -22 28zM432 1273q3 5 21 30q14 17 19 33q-20 -6 -37 -29q-9 -14 -9 -23q0 -7 6 -11zM460 302v1q4 0 74 -144q1 31 -27 74q-7 11 -24 35q-16 22 -23 34z" />
<glyph unicode="L" d="M1 83q5 19 16 36q-5 104 -5 355.5t5 649.5q1 13 4 43q2 27 2 41q-1 21 -5 59q-6 44 -7 60q-1 9 -1 17q0 54 24 79q18 -21 44 -21q8 0 17 2q26 6 44 6q15 0 25 -4q1 -47 3 -270q1 -174 8 -289q12 -186 12 -254v-17q-2 -34 -10 -90q-10 -76 -12 -93q-5 -42 -5 -80 q0 -68 15 -126q7 0 21 2q11 2 16 2q17 0 25 -16q6 1 13 11q6 8 16 6q27 -10 71 -11q32 0 72 6q32 4 83 14q65 12 78 14q10 -10 32 -9q24 1 25 20q66 -8 67 -84q0 -71 -45 -108q-62 18 -149 18q-42 0 -90 -4q-200 -19 -242 -19h-4q-9 -3 -16 -20q-7 -18 -18 -20q-9 16 -25 19 q-16 4 -31 -7q-24 26 -28 50q-4 -13 -18 -7t-16 2q-12 8 -12 25q0 6 1 12zM53 1026q0 -9 15 -10q-2 7 -2 22q0 8 -9 12q0 -5 -2 -12q-2 -9 -2 -12zM62 283q15 -16 15 -59q0 -22 -4 -51q-3 -19 -3 -34q0 -47 26 -59q5 46 5 126v58q0 51 1 75q8 157 8 388q0 116 -2 250 q1 0 -10 4q-5 2 -7 -4q-7 -93 -12 -339q-5 -226 -17 -355zM62 1333q-1 -43 -1 -76q0 -82 7 -99q0 10 22 102q3 13 3 24q0 34 -31 49zM158 80h2q10 0 12 11q1 4 2 11q1 8 1 11q-3 1 -7 4q-4 2 -8 2h-2v-39z" />
<glyph unicode="M" horiz-adv-x="827" d="M1 1378q2 17 20 28q3 2 16 8q10 5 15 9q12 -10 13 -33q2 -28 9 -41q8 6 16 22q9 19 13 24q31 -5 50 -17q19 -75 92 -235q96 -209 117 -262q103 217 124 288q5 1 10 -2q4 -4 7 -4q1 33 35 106q36 75 39 120q55 22 84 23q9 -15 9 -13q1 -4 -3 -16q41 -11 49 -88 q2 -21 2 -41q0 -33 -6 -63q10 -42 10 -68.5t-10 -38.5q23 -388 23 -412q0 -11 -8 -31q-8 -21 -9 -31q-3 -22 -3 -51.5t3 -67.5q5 -67 5 -101v-17q-1 -29 -11 -128q-6 -67 -6 -113v-13q2 -60 2 -92.5t-2 -37.5q-39 4 -47 43q-2 10 -2 25q0 22 4 56q-11 -16 -19 -51 q-11 -46 -15 -56q-18 1 -45 23q1 11 15 59q10 37 2 42q11 128 11 335q0 69 -1 147q-5 298 -5 418q0 40 1 60q-56 -97 -57 -147q-12 3 -14 -10q-4 -29 -8 -41q-7 -18 -30 -49q-27 -37 -32 -47q-33 -57 -33 -58q-14 -16 -57 -21q-13 -1 -24 13q-12 17 -27 21q-13 3 -25 -4 q-13 -7 -20 -7q-22 37 -48 132q-23 86 -60 133q-11 -106 -13 -304q-3 -220 -9 -305q0 1 -4 -19q-3 -11 -13 -10q16 -27 16 -44t-16 -23q16 -13 9 -48q-7 -39 2 -54q-16 2 -12 -35q5 -37 23 -44q-4 -31 -39 -68q-29 13 -34 17q-6 -9 -10 -32q-4 -27 -7 -36q-8 0 -19 7 q-9 7 -20 5q-2 7 -1 38q0 18 -11 30q0 68 10 189q11 142 13 194q0 15 -6 44q-6 28 -5 41q11 273 11 361v23q0 11 -6 36q-6 24 -5 37q1 25 1 51q0 146 -24 322zM63 1265q4 -286 17 -316q-5 283 -17 316zM73 912q0 -16 13 -14q-1 5 0 14v14q-1 16 -12 17zM430 937 q79 95 158 322q-1 6 -11 11q-17 -49 -70 -158q-55 -111 -77 -175zM650 1107q14 -33 14 -147v-30v-19q0 -130 26 -199q-6 56 -6 247q-1 158 -17 238q-14 -14 -10 -49q4 -34 -7 -41zM656 243v-7q0 -20 11 -21q0 5 1 12q2 8 2 9q1 7 -14 7zM658 305q-1 -8 -1 -15q0 -32 16 -36 q-1 7 -1 21q0 18 2 48q3 41 -7 50q0 -8 -4 -30q-4 -26 -5 -38zM675 675q0 -9 9 -14q-2 6 5 28q1 4 1 7q0 9 -12 10z" />
<glyph unicode="N" horiz-adv-x="877" d="M8 103q5 62 5 161.5t-5 235.5q-4 101 -4 181q0 125 9 199q-8 141 -8 259q0 158 14 277q15 -5 46 -23q-19 -166 -19 -435q0 -93 2 -199q12 68 15 217q2 142 19 221q-1 11 -8 9q-8 -2 -9 3q13 42 13 91q0 56 10 99q5 0 16 -5q9 -4 19 -1q1 -5 9 -24q9 -19 12 -30 q12 -37 -10 -44q56 -55 52 -52q194 -456 311 -650q12 -72 80 -265q8 6 2 26q-4 18 10 20q-7 44 -7 133.5t7 223.5q6 116 6 198t-6 130q11 25 7 44q0 -1 -19 48q14 33 13.5 76t-13.5 97q25 42 35 52q41 -6 40 -6q5 -31 -6 -57q-4 -7 -11 -20q-8 -14 -11 -21q9 -18 8 -63v-27 q-1 -24 -1 -43q0 -37 4 -51q9 44 18 135q12 119 17 158q13 -3 22 4q11 8 18 8q34 -18 34 -52q0 -11 -7 -40q-8 -30 -10 -41q-23 -129 -23 -236q0 -78 12 -144q-3 -19 -3 -54q0 -17 1 -38q0 -48 -10 -86q3 -7 10 1q9 10 19 5q-3 -34 -5 -193q-1 -129 -18 -199q12 4 12 -25 q0 -5 -1 -25v-25q-1 1 -5 4q-3 2 -6 2q-1 0 9 -33q9 -29 -15 -30q25 -23 24 -68q0 -82 -1 -76q-16 -2 -34 -35q-11 7 -36 13q-18 4 -28 16q-14 -3 -22 -24q-9 -23 -18 -28q-11 0 -19 10q-9 12 -16 13q0 5 5 16q4 9 1 19q-5 10 -54 128q-33 80 -72 119q-95 304 -202 524 q0 5 3 12q3 6 3 11q-12 12 -29 55q-14 39 -35 49q6 19 -3 39q-3 6 -10 18t-10 18q-11 -15 -9 -51q2 -34 -14 -53q13 -15 12 -49q-1 -37 -17 -43q-3 13 23 0q-5 -30 -5 -90v-37q1 -40 0 -71q0 -45 -1 -67q0 -4 -6 -14q-5 -10 -6 -15q-1 -34 -1 -83q0 -72 2 -176q1 -66 1 -118 q0 -78 -2 -123q-17 -5 -30 4q-15 9 -27 7q-11 -9 -12 -34q-5 5 -13 2q-12 -5 -21 -2q-18 31 -18 78q0 12 1 25zM42 690q4 -16 4 -46v-21v-8q0 -37 8 -63q4 20 4 48v19q-1 18 -1 32q0 21 2 34q-3 0 -8 3q-4 3 -9 2zM88 742q18 9 16 44q-2 26 -10 43q-7 -10 -7 -31q0 -7 1 -15 q3 -34 0 -41zM174 1099q4 -24 18 -29q2 29 -15 29h-3zM186 1065q1 -39 17 -46q6 13 1 26q-5 14 -18 20zM278 921q-2 -3 -2 -8q0 -7 4 -18q7 -20 21 -20q-1 4 -3 14q-2 9 -3 14q-5 15 -17 18zM301 869q44 -159 173 -403q-37 148 -173 403zM514 328q0 -21 1 -25q3 -12 16 -10 q1 27 -17 35zM641 811q24 3 34 -5q-2 22 -5 23q0 -8 -18 -6q-12 1 -12 -7q0 -2 1 -5zM656 713q0 -17 19 -23q-3 20 -3 36t3 28h-17zM658 230q-7 -35 -7 -61q0 -47 24 -66q4 48 3.5 79.5t-3.5 47.5h-17zM664 236h4q16 0 13 23h-17v-23zM675 460q18 1 18 16q0 9 -6 24 q-1 -7 -12 0q-1 -18 -1 -28t1 -12z" />
<glyph unicode="O" horiz-adv-x="820" d="M1 489q2 28 12 185q8 124 17 186q4 31 9 148q5 94 19 149q27 106 89 174q70 76 162 77q11 2 16 -7q10 -19 7 -16q7 12 41 22q30 10 33 30q186 -18 280 -228q-3 -7 -8 -5q-10 5 -9 5q19 -21 33 -70q18 -66 24 -79q-1 -5 -29 -23q3 -10 13 -10q14 -1 22 -7q-1 -82 -20 -291 q-15 -162 -15 -260v-31q0 -4 -17 -6q-2 -9 5 -12q12 -4 12 -5q-24 -216 -108 -354q-19 -3 -106 -36q-57 -22 -104 -22q-9 0 -18 1q-52 5 -114 35q-13 6 -52 26q-32 16 -51 25q-10 19 -44 75q-27 45 -42 79q-45 104 -46 114q0 7 6 20q6 14 6 20q0 3 -9 39q-7 25 3 35 q-8 9 -17 17zM52 752q12 -4 12 -32q0 -15 -4 -37q-4 -24 -4 -42q0 -32 13 -43v7q0 28 6 89q2 16 2 29q0 29 -8 46q5 -11 -6 -11q-12 0 -11 -6zM64 815h23v28h-18q-6 -8 -6 -19q0 -4 1 -9zM69 558q-3 -33 -3 -66q0 -76 16 -150q27 -127 90 -178q-88 170 -91 388q-2 7 -12 6z M75 855q13 -6 13 14q1 20 -7 20q-6 -6 -6 -28v-6zM78 957q-2 -12 -2 -22q0 -25 11 -35q-1 5 -1 13q0 18 6 52q8 39 -5 55q0 4 -9 -63zM104 1100q15 -2 17 14v16q-1 11 0 16q39 92 103 165q0 13 -12 17q-109 -123 -109 -213q0 -8 1 -15zM125 810q-1 -22 0 -45q0 -167 36 -447 q23 -17 41 -64q23 -54 33 -67q3 -4 29 -20q17 -10 11 -26q21 11 51 -4q34 -16 52 -13q27 4 66 48t71 49q45 184 68 611q1 6 -5 17q-6 12 -6 17v16q0 173 -63 269q-67 104 -74 109q-23 2 -46 2q-77 0 -143 -19q-111 -166 -121 -433zM218 118q-3 -15 17 -17q22 -2 23 -11 q2 9 -6 14q-8 6 -6 14h-28zM503 1271h1q10 0 15 -22q3 -17 13 -1q14 -25 37 -68q28 -51 37 -69q4 9 -5 38q-8 29 -1 42q-20 6 -49 46q-24 34 -45 34h-3zM595 352q52 116 52 238q0 72 -18 145q-2 -49 -18 -183q-15 -129 -16 -200zM635 889q-2 -34 -2 -58q0 -44 7 -56 q0 6 3 24q3 22 3 32q1 9 1 17q0 29 -12 41z" />
<glyph unicode="P" horiz-adv-x="884" d="M18 44q-2 21 -2 49q0 83 14 223q8 84 8 149t-8 112q15 101 15 291v22q0 175 15 279q-12 38 -12 108v21v94.5v40.5q7 -3 32 -4q14 -1 22 -14q149 22 278 22q54 0 105 -4q9 -1 16 -11q9 -11 14 -13q109 -18 174 -129q19 -34 48 -103q32 -74 47 -103q-2 -213 -198 -320 q-82 -45 -177 -55q-28 -3 -54 -3q-62 0 -115 18q-9 3 -15 -5q-6 -9 -15 -6q-1 0 -6 17q-4 11 -18 6q-2 -9 -2 -36q0 -34 3 -96q1 -13 1 -25q0 -69 -20 -88q1 -6 6 -2q5 3 6 8q2 -38 2 -75q0 -100 -14 -194q-2 -12 2 -53q4 -50 4 -73q0 -90 -47 -90h-1q-21 1 -26 21l-4 39 q-12 9 -21 -7q-3 -4 -8 -15q-4 -10 -7 -14q-8 2 -20 9q-13 8 -22 9zM79 828q5 -24 11 -12q-6 3 -1 20t-5 22q-7 -3 -7 -16q0 -6 2 -14zM84 1151q3 -8 2 -30q-1 -20 4 -24q7 9 8 31q1 25 -14 23zM102 445h2q14 0 13 16q0 4 -2 14q-1 9 -1 12q11 94 12 162q-2 7 -12 6 q-2 -25 -5 -96q-2 -70 -7 -114zM169 1050q-1 -28 -1 -55q0 -116 18 -191q20 -5 43 -5q48 0 110 22q114 41 164 43q73 54 105 158q15 50 15 96q0 58 -24 111q-30 4 -63 41q-41 44 -63 55q-50 26 -114 26q-28 0 -58 -5q-97 -16 -127 -63v-22q0 -54 -5 -211zM365 774 q7 -2 16 -2q36 0 92 38q-17 3 -38 -5q-15 -7 -28 5q-1 -12 -18 -20q-20 -9 -24 -16zM593 828q67 44 102 103q25 42 25 82q0 28 -13 55q-13 -103 -114 -240z" />
<glyph unicode="Q" horiz-adv-x="817" d="M-2 424q-2 35 -2 75q0 240 66 685q10 15 52 112q31 69 71 93q3 9 -2 16t-4 13q14 -3 26 6q10 7 20 7q3 0 7 -1q15 -15 11 -47q57 44 139 44h4q54 -1 161 -26q110 -154 123 -222q54 -274 54 -404q0 -19 -1 -35q-21 -280 -94 -485q-6 -18 -35 -61q-27 -39 -29 -56 q-1 -5 -1 -11q0 -43 41 -115q35 -62 71 -102q2 -21 -10 -43q-12 -25 -13 -39q-7 2 -15 2q-21 0 -48 -15q-37 -22 -53 -22h-1q-25 24 -43 106q-18 81 -45 104q-26 -20 -79 -20q-12 0 -24 1q-23 1 -62 6q-45 6 -57 7q-53 54 -82 59q-12 28 -41 81q-33 61 -47 88 q-53 110 -58 199zM39 541q6 -7 5 -41q-1 -31 12 -35q1 -4 0 51q-1 24 -17 25zM56 448q-2 -15 -2 -29q0 -56 32 -106q-1 67 -30 135zM91 1103q13 -1 17 17q3 17 -11 18q0 -5 -4 -16q-3 -6 -3 -12q0 -4 1 -7zM115 1173q3 6 56 84q40 60 61 103q-94 -62 -117 -187zM121 214 q42 -74 68 -103q47 -53 101 -55q-1 26 -26 40q-7 3 -23 9q-14 5 -21 9q-18 11 -48 60q-25 39 -51 40zM126 1050q14 8 21 36q8 27 3 40q-23 -77 -24 -76zM144 381q6 -100 41 -150q9 -13 34 -29q33 -22 42 -29q54 -45 66 -53q36 -21 86 -23q-20 102 -53 140q8 29 21 62 q15 40 20 55q6 0 12 3q7 3 12 3q39 -46 41 -82q12 7 25 2l27 -8q1 -4 0 -14v-15q1 -17 12 -17q113 201 122 496q1 24 1 48q0 251 -76 479q-13 -6 -41 -12q-13 14 -40 33q-31 21 -42 31q-10 3 -47 -4q-32 -6 -41 4q0 6 -5 6h-1q-19 -19 -87 -58q-129 -234 -129 -676v-14v-138 t0 -40zM524 27q1 -25 14 -77q14 -53 15 -75q12 1 35 11q-1 6 -3 16q-2 11 -3 16q-5 17 -17 21q-11 49 -41 88z" />
<glyph unicode="R" horiz-adv-x="803" d="M6 33q0 -1 0 7q0 54 11 508q2 62 2 120q0 129 -8 242q-1 13 8 9q15 -7 22 -4q-6 15 -8 14q-1 0 -5 -3q-5 -3 -11 -5q-8 96 -7.5 222.5t7.5 281.5q-5 1 36 12q5 -3 16 -14t17 -15q20 -13 26 17q58 -30 130 -31q25 0 64 3q53 4 67 4q41 -11 115 -36q72 -25 110 -35 q14 -19 39 -83q21 -55 44 -77v-10q0 -21 5 -64q2 -15 2 -29q0 -28 -7 -51q-21 -16 -31 -46q-17 -50 -17 -49q-31 -63 -91 -108q-22 -17 -122 -75q-8 -5 -22 -17q-16 -13 -25 -19q-23 9 -45 9q-13 0 -26 -3q6 -31 31 -29q4 0 23 4q14 3 23 1q87 -76 176 -294 q95 -228 167 -304q-4 -34 -17 -65q-15 1 -31 14q-17 14 -29 16q1 8 1 16q0 28 -14 53q-26 45 -28 55q0 -3 16 -72q4 -14 4 -27q0 -29 -20 -49q-14 -3 -17 12q-4 17 -13 18l-9 -9l-9 -9q-12 -9 -29 -6q-57 109 -149 337q-94 234 -147 338q-10 -4 -83 -6q5 -38 5 -138 q0 -75 -3 -184v-38q0 -170 33 -244q-31 -17 -18 -53q-11 6 -27 3q-21 -4 -32 -3q-11 55 -11 160q0 79 6 187q5 74 5 137q0 137 -23 215q-15 -160 -15 -327.5t15 -342.5q0 -4 1 -7q0 -40 -31 -64q-14 2 -26 13q-17 15 -21 17zM48 1141q19 31 21 85v50q0 33 2 54 q-19 -41 -23 -189zM71 756q31 34 31 125q0 61 -14 147q-7 -28 -17 -272zM154 838q8 -1 20 -1q18 0 46 2h16q30 0 54 -6q75 22 136 71q57 44 65 59q26 44 26 105q0 53 -20 120q-82 85 -206 85q-61 0 -131 -20q6 -79 6 -164q0 -120 -12 -251zM355 791q16 -3 39 13q18 14 32 5 q-1 17 -7 20q-5 3 -16 -3q-33 -16 -48 -11v-24zM367 519q147 -343 166 -368q-93 252 -166 368zM527 915q46 72 59 166q-21 -7 -30 -94q-31 -39 -31 -62q0 -5 2 -10z" />
<glyph unicode="S" horiz-adv-x="827" d="M-7 187q3 31 3 108v42v17q0 82 9 130q15 -5 31 9q12 11 22 -3q7 0 7 14t5 15q30 -42 42 -47q16 6 33 5q13 -1 20 7q14 -18 14 -50q0 -24 -8 -57q-7 -33 -7 -62q0 -34 10 -62q13 -34 69 -108q44 -38 41 -30q3 0 6 -1q54 0 101 49q23 -1 24 -6q93 81 141 180q33 69 33 130 q0 53 -25 100q2 6 11 47q9 2 17 -7q6 -6 13 2q-75 111 -154 111q-30 0 -60 -16q1 14 -27 8q-26 -5 -32 -14q-37 9 -32 9q-16 2 -28 -9q-16 6 -51 6t-91 -6q-77 22 -131 142v21q0 50 7 119q10 97 11 134q14 20 46 105q25 69 61 91v24q22 3 36 22q5 7 12 18q9 15 11 19 q58 11 119 59q10 -8 28 -11q22 -5 32 6q18 -14 39 -15q35 -1 44 -3q87 -20 148 -98q38 -50 89 -164q-3 -48 -17 -71q-8 7 -30 -2q-17 -6 -18 14q-4 -4 -10 -14q-7 -9 -11 -13q-14 -14 -38 -9q0 5 -5 16q-4 10 -1 20q-14 -5 -22 -23q-17 -35 -14 -31q-43 8 -43 54q0 13 5 42 q4 25 2 35q-6 51 -54 83q-30 20 -100 42q-67 0 -116 -56q-28 -33 -68 -116q-1 -19 -7 -52l-9 -54q-2 -16 -2 -32q0 -45 18 -76q17 -7 52 -51q35 -45 61 -56q33 5 103 28q59 19 93 19h3q42 0 87 -28q70 -42 88 -49q9 -21 47 -98q32 -65 47 -108q24 -66 24 -124 q0 -56 -23 -104q-2 -3 -11 -8q-10 -4 -13 -10q-123 -242 -226 -267q-7 -2 -15 -13q-7 -11 -8 -11q-49 -20 -89 -24q-19 -2 -38 -2q-76 0 -156 26q-133 44 -139 137q-5 5 -17 1q-12 -3 -19 5zM70 879q4 -17 12 -27q9 12 6 32q-4 21 -18 22q-2 -4 -2 -10.5t2 -16.5zM98 280v-6 q0 -32 20 -40q-2 10 -4 64q-2 39 -14 55v-8q0 -17 -2 -65zM106 412q-6 -21 -6 -34q0 -18 12 -19q-2 9 4 33q4 16 -10 20zM114 204q-2 -3 -2 -6q0 -4 6 -6v12q13 -10 18 6q-4 1 -8 8q-3 6 -10 4q3 -7 -4 -18zM136 192q-1 -3 -1 -7q0 -9 8 -17q5 -5 9 -5t7 6q-24 20 -24 22 q0 1 1 1zM284 751q199 14 214 24q8 -12 32 -21q23 -8 34 -3q-55 50 -134 50h-6q-79 -3 -140 -50zM415 1334q4 2 9 2q15 0 33 -20q25 -26 41 -18q2 -1 -38 36q-12 12 -23.5 12t-21.5 -12zM508 1255q6 -14 20 -16q14 16 -18 41q-5 -6 -5 -13q0 -6 3 -12zM641 436q3 -2 6 -2 q8 0 8 17t-8 17q-3 0 -6 -2v-30z" />
<glyph unicode="T" horiz-adv-x="842" d="M-11 1366q8 22 46 40q13 2 23 -6q11 -10 18 -11q15 4 34 4q17 0 37 -3q14 -3 27 -3q22 0 40 8q31 -6 68 -6q72 0 167 23q93 23 155 23q31 0 55 -6q0 -6 34 -85q6 -14 6 -26q0 -27 -29 -45q-29 9 -78 9q-28 0 -61 -3q-78 -7 -113 -7q-12 0 -20 1q1 -44 22 -249 q9 -82 8 -147q0 -57 -6 -100q18 -83 18 -231q0 -68 -4 -149q-10 -206 -10 -299q0 -40 2 -60q-12 1 -18 -9q-8 -13 -12 -15q-9 1 -25 4q-14 3 -20 3q-19 0 -35 -18q-18 3 -28 41q-10 35 -35 34q37 317 52 797q-17 154 -17 230q0 41 5 59q1 -5 -17 0q-1 29 -6 104q-11 1 -25 1 q-49 0 -125 -14q-30 -6 -55 -6q-37 0 -61 13q8 7 6 34q23 8 75 15q44 5 75 20q-11 3 -29 3q-20 0 -50 -4q-17 -2 -32 -2q-30 0 -50 9q2 11 -3 17q-8 9 -9 12zM335 1123q12 57 11.5 94.5t-11.5 55.5q-14 -38 -14 -75.5t14 -74.5zM339 545q-1 -23 -1 -44q0 -93 15 -140 q2 60 3 196q1 153 3 220q-2 7 -12 5q0 -3 -4 -7q-3 -5 -2 -10q2 -21 2 -60q0 -59 -4 -160zM359 881q2 8 10 3q8 -4 13 -4q3 0 5 1v7q0 85 -23 189q-10 -75 -11 -129q1 -39 6 -67zM555 1337q4 -2 8 -2q8 0 13 8q3 5 3 8q0 6 -7 9q-1 -4 -13 -7q-6 -2 -6 -8q0 -3 2 -8z" />
<glyph unicode="U" horiz-adv-x="806" d="M4 1400q2 4 17 9q13 4 12 14q26 -13 97 -19q50 -4 67 -39v1q5 0 -70 -579q8 -36 40 -293q24 -189 76 -297q22 -15 59 -87q31 2 62 24q42 29 54 34q2 14 20 32q18 19 39 26q87 154 87 371v15q5 12 18 11q31 524 35 677q-8 15 -8 30q0 24 20 46q15 2 29 -8q14 -11 29 -9 q19 -121 19 -265q0 -88 -7 -185q14 -24 14 -58q0 -7 -4 -39q-4 -25 -5 -37q-38 -447 -40 -455q-38 -147 -90 -221q-66 -94 -167 -94h-12q-7 1 -10 -5q-4 -7 -7 -7q-26 -3 -50 -3q-103 0 -178 61q-66 110 -99 261q-15 67 -41 270q5 19 23 24q3 11 -8 15t-9 14q-7 106 -7 280 q0 58 1 124q1 62 1 115q0 160 -7 246zM74 489q48 -247 54 -268q47 -143 150 -176q1 10 -15 21q-21 14 -26 20q-8 11 -28 56q-21 48 -30 61q2 -2 -31 33q-13 14 2 25q-18 35 -38 114q-22 81 -38 114zM372 75q9 -1 18 -1q65 0 128 65q-1 33 29 90q20 36 20 62q0 9 -3 17 q-19 -73 -78 -135q-19 -20 -114 -98zM580 395q-1 -4 -1 -9q0 -12 9 -20q-4 36 -4 53q0 13 2 13q1 0 2 -1q0 -4 -8 -36zM599 547h3q18 0 22 41v8q0 12 -2 20q-3 8 -7 8q-2 0 -4 -1q3 -9 0 -37q-3 -31 -12 -39z" />
<glyph unicode="V" horiz-adv-x="912" d="M2 1354q-4 16 -4 29q0 30 22 37q6 2 12 2q22 0 41 -32q7 2 16 15t19 14q4 -1 13 -13q8 -9 23 -5q22 -80 101 -421q59 -258 117 -410q4 -34 22 -122q16 -75 19 -126q50 138 171 655q56 237 65 354q7 87 30 106q-2 -9 19 -9q22 -1 10 9q14 -11 14 -42q0 -12 -2 -27 q-4 -23 -24 -96q-13 -50 -29 -53q0 -57 -27 -161q-30 -111 -32 -158q41 87 112 431q6 32 4 26q4 11 19 15q3 10 -1 19q-4 11 -4 16q34 -9 53 -36q2 -3 16 -25q10 -17 19 -27q-2 -4 -4 -11q-3 -8 -4 -11q-5 -12 -16 -14q5 -9 1 -27q-3 -16 5 -26q2 2 -41 -183 q-13 -58 -66 -182q-49 -113 -58 -177q-36 -255 -59 -301q-27 -218 -94 -325q-9 1 -16 -4q-10 -7 -14 -8q4 -16 -6 -25l-17 -16q-13 1 -24 12q-13 15 -18 18q-8 -24 -47 -36q-12 8 -35 30q12 42 6 41q-27 54 -42 181q-16 128 -41 179q-8 61 -71 283q-70 467 -124 625 q0 7 -14 7q-13 0 -15 5zM96 1307q25 -117 30 -124q1 17 1 31q0 70 -31 93zM120 1171q40 -248 59 -289q-1 50 -19 145q-20 102 -22 144h-18zM173 870q3 -35 24 -118q17 -63 17 -101v-11q18 -10 24 -48q5 -34 29 -40q-51 234 -94 318z" />
<glyph unicode="W" horiz-adv-x="1506" d="M-10 1385q3 3 16 11q11 5 13 13q43 -19 53 -35q-7 -29 7 -56q17 -32 53 -32h4q75 -159 88 -245q-1 -11 3 -9q4 1 3 9q39 -108 95 -350q56 -244 97 -357q11 28 123 385q-17 40 -47 145q-32 113 -52 165q-30 77 -30 76q-4 19 -41 108q-24 58 -24 86q0 6 1 11q4 17 30 29 q29 15 34 23q54 -43 54 -75q0 -4 -1 -7q44 -43 85 -134q64 -146 67 -152q21 52 38 187q16 129 38 175h3q38 0 55 -46q6 10 17 43q8 24 24 38q8 -5 18 -20t17 -21q-69 -321 -70 -327q-7 -31 -43 -123q-31 -76 -33 -122v-6q0 -44 29 -116q44 -108 47 -118q93 -324 135 -379 q13 31 19 98q6 72 16 100q2 6 11 15t12 14q51 107 94 288q73 314 70 302q4 17 41 141q26 86 40 152q2 9 -11 18q-11 7 -6 23q6 19 37 32q36 15 45 26q18 -12 38 -8q45 8 43 8q19 -16 19 -43q0 -11 -3 -23q-11 -44 -11 -64q0 -6 1 -10q-11 2 -14 -10q-3 -13 -9 -14 q-22 -234 -160 -559q-177 -418 -214 -551q1 -4 12 -14q8 -8 6 -21q-8 -1 -12 -9l-6 -14q-17 22 -42 6q-31 -18 -46 -12q-19 -37 -17 -53q-8 -2 -16 -2q-9 0 -15 3q-28 11 -28 15q0 88 -45 206q-11 31 -40 100q-26 61 -37 93q-1 30 -23 73q-31 60 -36 73q-19 -31 -34 -97 q-23 -97 -30 -119q-8 -23 -23 -58q-18 -40 -22 -52q-11 -30 -11 -56q0 -24 9 -44q-74 -66 -146 -76q-53 233 -82 286q-6 115 -64 181q-97 407 -204 742q-1 0 23 47q-14 12 -22 42q-14 54 -13 51zM101 1187q5 -38 23 -41q4 23 -23 41zM177 836q0 -110 64 -282 q75 -196 88 -290q10 -5 17 -27t18 -26q-12 125 -85 326q-74 203 -84 299h-18zM224 877q36 -254 105 -368q-28 99 -82 356q-5 -1 -12 13q-6 10 -11 -1zM364 293h13q10 -1 13 0q14 1 9 17q-2 -2 -22 -4q-14 -2 -13 -13zM434 1199q3 -20 16 -48q17 -38 19 -46q-3 9 41 -157 q26 -97 64 -147q9 29 9 61q0 64 -37 143q-6 12 -51 98q-31 58 -43 96h-18zM475 328q91 255 88 321q-8 -30 -53 -164q-32 -96 -35 -157zM633 608q33 -63 78 -184q51 -141 74 -190q-61 289 -129 456q-2 -5 -10 -43q-5 -26 -13 -39zM659 867q-2 -7 -2 -13q0 -9 5 -12q0 2 11 32 q8 21 -5 21q-1 -4 -4 -13q-3 -10 -5 -15zM726 1251q20 -2 18 23h-4q-14 0 -14 -17v-6zM849 129q-1 -8 -1 -15q0 -29 13 -49q7 11 0 32q-13 36 -12 32zM1042 509q45 61 81 240q-24 -37 -45 -116q-25 -98 -36 -124zM1129 760q4 17 15 47q11 31 15 47q-17 -12 -26 -43 q-6 -19 -6 -34q0 -9 2 -17z" />
<glyph unicode="X" horiz-adv-x="870" d="M17 76q-1 -1 41 67q17 28 44 86q26 56 42 81q-1 2 0 34q41 53 86 163q52 129 80 175q-14 30 -79 188q-47 116 -87 179q-6 75 -59 184q-55 111 -62 166q29 4 52 -11q6 4 17 40q9 -5 18 -4q12 1 22 -2q32 -70 133 -257q86 -159 125 -265q34 49 121 258q5 1 9 -2q5 -3 8 -3 q2 57 53 146q54 95 62 152q34 -3 51 -40q-45 -63 -137 -258q98 112 155 281q8 0 21 -4q13 -5 24 -2q1 -9 1 -17q0 -55 -32 -127q-69 -157 -66 -149q-9 -24 -29 -94q-16 -56 -28 -83q2 5 -23 -37q-12 -21 -12 -49q-20 -22 -48 -81q-27 -58 -49 -80q2 -24 24 -77 q17 -38 17 -63q0 -5 -1 -9q0 -6 10 -7q11 -1 13 -5q83 -252 189 -366q-2 -12 2 -25t4 -21q-43 -34 -75 -35q-42 156 -212 459q15 -55 63 -154q52 -108 69 -161q4 -14 10 -40q7 -28 10 -39q13 -44 37 -65q-4 -5 -21 -30q-13 -19 -25 -27q-7 2 -19 12q-12 9 -21 11v10 q0 38 -28 41v29q-15 22 -132 356q-40 -49 -96 -160q-61 -120 -99 -173q4 -22 -10 -42q-14 -22 -13 -38q-43 -34 -40 -29q-15 -2 -24 8q-11 13 -16 15q0 4 -52 -69q-24 12 -24 35q0 11 6 24zM98 1302q5 -19 22 -52q18 -36 24 -34q-4 14 -9 40q-6 29 -9 39q-11 43 -28 58 q-3 -13 -3 -26t3 -25zM178 1204q6 -13 21 -65q11 -42 25 -61q2 6 15 8t14 9q-5 9 -17 26q-13 18 -19 26q-19 32 -16 57h-23zM229 997q0 -14 12 -11q7 1 3 19t-14 16q0 1 -1 -24zM247 975q17 -74 52 -115q-6 11 -22 62q-11 39 -30 53zM281 1015q68 -187 81 -206 q1 110 -81 206zM454 745q33 61 34 81q20 20 37 55q19 39 9 54q-9 -18 -30 -45q-27 -35 -33 -44q-23 -35 -23 -68q0 -17 6 -33zM482 350q0 -22 23 -40q3 -6 -6 25q-4 14 -17 15zM499 287q1 -1 10 -18q3 -6 6 -6t7 7l-9 17q-7 12 -14 0zM544 958q-4 -7 -4 -11q0 -5 5 -7 q1 6 11 13q8 6 6 16q-11 3 -18 -11zM557 1061q26 18 52 71q31 62 40 72q0 -4 5 -5q5 0 6 5q-31 -5 -63 -60q-8 -13 -40 -83z" />
<glyph unicode="Y" horiz-adv-x="912" d="M3 1389q0 10 14 19q12 8 9 22q1 -1 36 -25q22 -15 23 -39q10 2 12 22q3 21 11 24q47 -17 80 -73q27 -45 27 -84q0 -9 -2 -18q15 11 25 -11q3 -6 7 -23l9 -24t40 -65q28 -43 30 -75q0 -15 17 -39q14 -19 6 -36q18 -22 64 -134q29 93 131 284q100 184 131 298q11 -3 18 3 q8 8 11 9q11 -7 94 -35q14 -66 17 -122q-54 -35 -94 -151q-46 -128 -81 -164q-140 -245 -151 -256q-24 -68 -85 -167q-69 -112 -90 -160q-5 0 -10 -7t-13 -4q2 -29 -19 -59q-33 -45 -34 -46q-6 -13 -28 -90q-15 -53 -42 -79q8 -22 -15 -45q-29 -26 -31 -43q-14 0 -26 7 q-17 10 -21 11q2 30 28 65q27 37 30 63q-13 0 -22 -17q2 4 -16 -34t-51 -38q-7 0 -16 2q6 35 -17 46q12 12 41 59q25 40 41 46q28 66 118 221q86 147 120 234q-78 208 -203 454q-4 7 -11 16q-7 10 -9 14q-9 15 -4 34q-1 3 -23 6q0 83 -76 204zM96 1337q48 -170 76 -204 q-1 1 -26 108q-17 70 -50 96zM195 1185q82 -250 175 -431q6 14 6 31q0 25 -14 56q-5 10 -23 44q-15 27 -21 44q-36 97 -70 198q-16 1 -29 33q-12 30 -24 25zM201 282q3 5 11 17q10 14 13 19q15 23 11 34q-3 -5 -12 -16q-10 -11 -14 -18q-11 -15 -11 -27q0 -5 2 -9zM260 398 q48 59 115 185q73 136 112 188q27 94 58 111q0 16 22 57q18 33 7 42q-117 -198 -128 -250q-16 0 -23 -6q-24 -52 -67 -135q-51 -99 -67 -133q7 -1 6 -6q-16 -3 -24 -20q-2 -6 -6 -17q-3 -11 -5 -16zM522 975q153 275 151 268q1 8 12 12t12 12q-4 1 -14 7q-6 4 -13 4h-3 q-131 -261 -145 -303zM580 993q5 -2 9 -2q8 0 13 10q3 6 3 10q0 7 -7 11q-1 -6 -12 -12q-7 -3 -7 -10q0 -3 1 -7z" />
<glyph unicode="Z" horiz-adv-x="813" d="M-6 1339q5 49 17 63q18 -1 41 -1q63 0 159 10q135 14 175 15q3 0 5 -1q4 -3 6 -17t6 -17q9 3 8 13q-1 9 3 10q17 3 47 -2q32 -6 45 -4q17 2 33 16q15 13 31 12q15 0 44 -20q34 -23 65 -31q14 -29 14 -59q0 -29 -13 -61q-13 -34 -58 -99q1 -8 1 -16q0 -31 -18 -66 q-4 -7 -22 -36q-13 -23 -19 -37q-23 -54 -80 -225q-48 -141 -87 -219q-42 -71 -207 -391q63 -26 156 -26q23 0 48 2q42 3 108 11q86 11 102 13q2 11 15 23q12 12 14 23q17 -7 37 -10q25 -4 38 -7q17 -26 17 -59q0 -20 -6 -42q-13 -48 -46 -83q-11 -3 -16 9q-5 13 -12 14 q-63 3 -127 3q-238 0 -484 -44q-17 60 -34 98q47 38 88 125q69 149 67 146q240 629 363 852q-79 44 -182 44q-127 0 -290 -67q-21 21 -20 52q1 10 4 30q3 22 4 33q-1 11 -16 15q-23 7 -24 8zM80 1276q25 -9 61 9q37 19 62 19h4q-16 19 -52 6q-29 -11 -46 -29q-9 10 -18 9 t-11 -14zM126 176q78 106 144 271q-3 0 -8 3q-4 3 -9 2q-2 -2 -6 -21q-3 -10 -17 -2q-9 -50 -52 -126t-52 -127zM253 1316q8 2 24 2q24 0 67 -5q15 -2 28 -2q38 0 54 16h-15q-30 0 -86 5q-7 1 -14 1q-33 0 -58 -17zM265 458q31 14 48 58q4 10 13 38q8 24 13 36 q62 131 64 150q12 13 57 115q-2 7 -11 6q-40 -73 -97 -204q-75 -173 -87 -199zM339 723q11 29 104 196q89 159 89 217q0 11 -3 19q-192 -446 -190 -432zM478 1316q0 -11 15 -14q29 -5 25 -3q2 14 -12 17q8 -2 -28 0zM552 1310q8 -20 28 -18q24 2 36 -11q-1 7 4 14q3 4 3 9 q0 3 -1 6h-19.5h-50.5z" />
<glyph unicode="a" horiz-adv-x="922" d="M1 286q28 110 31 110v-1q65 73 96 98q63 51 123 51q10 1 15 13l9 18q25 -5 52 -5q68 0 151 29q29 -31 101 -55q28 41 28 108v17q-4 76 -36 139q-35 68 -85 83q-13 4 -27 4q-45 0 -91 -46q-85 -11 -156 -65q-75 -57 -102 -138q-44 -3 -78 -8q-6 17 -6 34q0 31 19 61 q4 7 58 69q-10 7 -44 -10t-50 -6q90 118 176 171q83 50 172 50q40 0 82 -10q15 12 50 12q19 0 43 -3q27 -4 47 -4q33 0 47 11q9 -19 37 -23q26 -4 49 7q62 -90 62 -219q0 -41 -6 -86q-9 -61 -34 -162q-30 -120 -37 -158l-3 -61q-1 -36 -21 -56q-8 -1 -18 4q-4 3 -13 -4 q-19 -17 -24 -63q57 27 95 88q21 34 54 115q8 -1 16 -1q29 0 54 9q-11 -25 2 -49q16 -30 14 -52q-51 -123 -181 -203q-106 -66 -205 -66q-22 0 -44 3q-6 -15 -27 -18q-11 -2 -43 -1h-7q-53 0 -64 -28q-135 33 -218 102q2 39 -40 54q-18 123 -23 141zM165 317q18 5 29 26 q1 3 9 19q5 12 9 18q-25 4 -31 -24q-7 -34 -16 -39zM212 153q35 130 125 258v7q-1 6 -1 8q-1 8 -7 9q-59 -51 -94 -124q-28 -59 -28 -112q0 -24 5 -46zM251 106q9 -2 188 -8q115 324 117 352q-2 0 -70 9q-16 2 -29 2q-31 0 -50 -11q-15 -32 -45 -79q-38 -61 -48 -78 q-54 -94 -63 -187zM564 231q1 8 38 80q13 26 13 45t-12 32q0 -27 -26 -82q-16 -33 -16 -57q0 -10 3 -18zM642 489q17 8 22 46t-6 56q-5 -22 -9 -56q-5 -33 -7 -46zM665 880q15 1 24 -19q8 -20 22 -20h1q0 7 -6 21q-5 13 -1 26q-3 -1 -25 1h-3q-12 0 -12 -9z" />
<glyph unicode="b" horiz-adv-x="995" d="M-17 78q13 29 19 52q21 74 25 252q3 193 17 262l-1 -4q-2 0 43 354q2 36 17 185q9 95 9 149v19v15q0 45 16 78q15 5 27 5q13 0 24 -6l42 -24q-2 -3 -7 -15q-3 -9 -10 -10q36 -23 35 -66q0 -9 -1 -19q-3 -17 -12 -48q-11 -33 -13 -44q-1 -3 -51 -293q22 42 43 42q4 0 8 -2 q4 55 20 146q17 100 22 140v5q0 18 -4 89v8q0 46 21 67q20 16 34 16q24 0 36 -41q9 -31 9 -73q0 -29 -4 -62q-4 -39 -44 -204q-13 -56 -21 -56q-10 0 -10 99v11q0 -60 0.5 -105.5t-0.5 -77.5q21 11 33 59q3 1 71 31q50 22 84 31q35 10 64 10q55 0 85 -38q-1 -3 -1 -5 q0 -7 12 -7q17 0 56 12q217 -173 218 -415q0 -44 -8 -91q-25 -167 -193 -345q-63 -19 -200 -96q-119 -67 -213 -81q-17 -6 -17 -25q-16 10 -42 1q-16 -6 -34 -6q-16 0 -33 5q-17 12 -17 33q0 17 11 40q38 77 39 112q1 16 1 79.5t-1 173.5q-29 -36 -36 -128 q-11 -143 -14 -159q-35 -20 -59 -8q-16 -81 -51 -110q-56 25 -56 48q0 9 12 35zM137 694q35 104 35 196q0 66 -18 125q-19 -309 -17 -321zM162 911q0 -2 0 55.5v174.5q22 1 23 -205q0 -25 -1 -52q-3 21 -22 27zM162 1124q-5 -5 -5 -16q0 -13 6 -34q4 -14 6 -10q3 5 2 35 q17 26 -1 26q-3 0 -8 -1zM258 336q-2 -31 -2 -58q0 -104 24 -165q-19 -11 -17 -42q40 24 148 78q94 47 143 80q155 104 189 272q49 45 49 109q0 15 -3 31q-11 75 -71 138q-22 -5 -31 5q-2 3 -8 13q-6 9 -12 15q-10 3 -27 3q-32 0 -90 -11q-14 -3 -43 0q-28 4 -42 0 q-83 -21 -139 -94q-54 -71 -54 -150q0 -36 -6 -106q-7 -88 -8 -118zM272 779q44 13 92 84q64 56 150 57q43 0 153 -23q-6 15 -27 33q-15 14 -15 34q-20 -16 -60 -1q-47 18 -64 18h-2q-123 -9 -227 -202z" />
<glyph unicode="c" horiz-adv-x="806" d="M10 297q-6 65 -6 128q0 212 66 390q30 22 77 66q55 51 76 68q91 75 178 78h1q8 0 20 -11q13 -13 21 -14h11q25 0 99 5q11 1 20 1q53 0 82 -23q0 3 -17 -94q-393 -83 -458 -305q-10 -35 -10 -72q0 -69 34 -149q72 -167 78 -212q21 13 19 12q5 2 15 -12q238 44 464 254 q-10 34 -2 59q5 14 27 43q12 -3 16 24q15 -19 38 -17q-2 -9 -2 -17q0 -34 28 -51q-223 -344 -425 -431q-54 -13 -103 -13q-69 0 -127 26q-62 28 -177 131q-28 117 -43 136zM87 357q2 67 16 189q15 133 18 167q-50 -108 -50 -223q0 -66 16 -133zM140 751q-3 -5 -3 -10 q0 -7 9 -11q-2 15 13 26q15 10 12 25h-25q4 -9 -6 -30zM163 263q5 -62 51 -93q1 7 1 14q0 56 -52 79zM180 790q25 22 25 23q8 9 7.5 16t-7.5 12q0 -7 -22 -26q-10 -8 -10 -15q0 -5 7 -10z" />
<glyph unicode="d" horiz-adv-x="877" d="M1 474q6 159 62 242q3 12 -3 22q-7 10 -6 19q33 23 95 119q67 103 101 134q55 49 150 54h15q90 0 162 -46q-8 63 -8.5 116.5t8.5 98.5q0 25 -32 111q-8 22 -8 41q0 33 23 60q5 1 10 1q47 0 105 -50q8 7 -3 28q-11 23 3 38q36 -7 48 16q22 -10 26 -31q0 -4 -1 -59v-46 q0 -25 1 -25t3 29q4 -169 4.5 -169t-0.5 37q-8 -14 -3 -13q13 4 19 -3v-33q0 -118 -16 -384q-2 -34 -14 -134q-10 -85 -10 -135q-1 -19 13 -119q4 -28 4 -52q0 -37 -9 -65q5 -5 11 -34q5 -23 21 -24q-32 -16 -32 -60v-5q-18 0 -39 -18q-20 -17 -43 -14q-4 14 4 37 q6 18 -4 28q-145 -127 -294 -196q-206 16 -269 163q-12 2 -14 -14q-3 -17 -10 -18q-40 -3 -46 30q-2 9 -2 30q1 21 -1 29q-22 109 -22 216q0 24 1 48zM103 325q77 -99 184 -139q58 -22 116 -23q67 0 133 31q4 2 24 22q17 17 33 19q40 87 82 130v-1q1 0 -14 288 q-10 183 -93 260q-16 4 -28 -8t-29 -8q-11 5 -35 4q-19 -2 -30 12q-33 -17 -105 -34q-79 -20 -107 -31q-11 -14 -39 -59q-24 -38 -43 -55q-41 -141 -41 -155q0 -2 0 -1h1q3 -15 3 -37q0 -37 -8 -94q-7 -52 -7 -85q0 -22 3 -36zM201 153q24 -61 98 -73q21 -4 40 -4 q33 0 58 12v16q-11 -3 -24 -3q-61 0 -172 52zM691 928q23 0 23 39q0 43 -15 51v-8q0 -22 -8 -82z" />
<glyph unicode="e" horiz-adv-x="728" d="M8 463q22 214 119 425q71 88 162 132q25 3 62 3h20h14q41 0 74 5q9 -49 42 -71q8 -5 75 -33q8 -33 8 -64q0 -97 -77 -189q-78 -92 -210 -159q-38 18 -38 39q0 10 8 20q-18 2 -32 -12q-16 -16 -27 -17q-9 -120 -9 -188q0 -34 2 -55q10 -88 29 -118q23 -35 104 -52 q45 -9 82 -9q18 0 35 2q52 7 111 52q66 50 110 145q42 88 44 171q17 3 35 21q19 19 31 23q1 -7 20 -32q17 -23 17 -44q0 -10 -14 -34q-17 -27 -23 -44q-60 -177 -195 -283q-120 -94 -263 -94q-59 0 -123 16q-11 18 -38 30q-35 15 -43 22q-116 95 -116 306q0 41 4 86zM61 350 q3 -6 2 -39q-1 -22 20 -27q0 6 -1 21q-1 13 -2 20q-3 22 -19 25zM76 542q27 16 38 79q3 22 3 37q0 30 -12 38q-21 -81 -29 -154zM142 130q19 -5 50 -28q29 -21 53 -24q-67 74 -81 96q6 -19 -6 -28q-15 -12 -16 -16zM201 630q106 5 190 86q64 63 64 130q0 28 -11 56 q-34 -19 -111 -29q-13 -21 -39 -54q-30 -38 -41 -53q-45 -66 -52 -136zM297 71q-3 0 27 -8q5 -1 9 -1q12 0 15 9q-13 -4 -18 7q-6 14 -11 15q1 -9 -10 -12q-12 -4 -12 -10zM503 873q-1 -4 -1 -7q0 -7 4 -15q7 -11 4 -22q28 1 29 29q-8 11 -14 12q-19 2 -22 3z" />
<glyph unicode="f" horiz-adv-x="809" d="M-146 877q21 43 85 53q14 2 60 5q42 4 67 8q2 16 6 -31q3 114 28 180q58 149 85 176q2 1 13 0q12 -1 13 0q9 13 18 38q6 17 24 29q133 88 247 97h11q19 0 56 -4q14 -2 27 -2q22 0 41 6q25 -22 81 -61t81 -60q4 -26 20 -86q17 -59 21 -90q3 -22 3 -42q0 -80 -53 -129 q12 -12 9 -30q-16 -2 -30 -25q-11 -20 -38 -18q-14 -2 -20 10t-23 9q17 65 17 67q-12 44 -14 169q-2 118 -20 165q0 9 -17 12q-21 3 -25 6q4 18 -8 30q-24 3 -47 3q-103 0 -178 -62q-29 -25 -72 -75q-51 -60 -69 -78q1 -6 15 -14q13 -6 11 -17q-32 -63 -39 -166 q-12 25 -12 24q14 -4 32 -4q28 0 66 10q50 14 88 14q14 0 26 -2q-1 -9 -1 -27.5t1 -45.5q1 0 -34 6q-3 -9 9 -15q11 -6 8 -15q20 -4 36 5t32 7q15 -11 0 -49q-30 0 -130 -23q-101 -24 -150 -25q-2 -63 -2 -123q0 -424 112 -677q-21 1 -29 -15q-12 -26 -13 -27h-60 q14 13 15 17q4 10 -23 7q7 22 7 48q-1 35 1 49q-26 -13 -21 -45q6 -35 -13 -52q2 0 -59 -6q-14 7 -15 31q0 18 -28 18q-4 11 9 15q16 5 17 9q-14 104 -24 269q-11 179 -19 457q-14 4 -61 3h-11q-34 0 -55 10v48q20 6 76 15q44 7 60 16q-10 6 -30 6q-30 0 -81 -13 q-35 -9 -60 -9q-33 0 -50 16zM204 1171q-2 -6 -2 -11q0 -10 9 -13q0 -2 20 27q13 18 -12 21q-10 -11 -15 -24zM243 1234q-5 -7 -5 -12q0 -6 7 -9q-3 -6 20 21q12 14 -3 22l-9 -9q-6 -8 -10 -13zM754 1183q-1 -8 -1 -17q0 -18 4 -41q7 -38 6 -57q21 22 21 51q0 6 -1 12 q-4 35 -29 52z" />
<glyph unicode="g" horiz-adv-x="753" d="M-182 -137q21 97 72 161q2 3 15 9t17 10q5 5 18 21q11 13 17 19q21 20 43 12q-8 27 -42 64q-31 35 -36 66q-1 9 -1 18q0 41 32 67q54 41 67 73q12 36 0 33q10 3 1 5q-8 2 -8 -5q-20 45 -20 115v7q1 22 4 63q3 42 3 61q7 12 33 55q20 35 33 54q42 59 97 80v26 q76 62 152 87q42 13 79 13q55 0 100 -29q35 -24 58 -78q30 61 99 104q63 41 135 52q7 -2 16 -13t16 -13q-7 -102 -12 -120q-18 -62 -75 -62h-10q-6 7 -20 13q-2 9 -2 18q0 23 17 42q9 10 50 37q-1 7 -9 13q-9 7 -10 13q-109 -20 -143 -149q23 -79 23 -156q0 -81 -25 -159 q-52 -163 -186 -211q-22 -49 -74 -67q-27 -9 -58 -9q-24 0 -50 5q-131 24 -175 110q-73 -76 -73 -126q0 -6 1 -11q10 -60 135 -60h8q26 1 79 18q56 19 83 21q11 1 23 1l99 -21q19 -8 52 -25q36 -19 54 -26q-1 0 55 -89q33 -52 35 -100q1 -8 1 -16q0 -84 -59 -157 q-56 -70 -143 -106q-23 -2 -107 -12q-82 -9 -133 -13q-47 -3 -87 -3q-105 0 -166 22q-9 3 -29 21q-15 14 -30 11q10 15 -1 18q-17 6 -18 8q-28 49 -28 114q0 35 8 76zM-119 -132q-5 -25 -5 -49q0 -63 33 -120h33q-1 -8 8 -22q6 -9 -2 -17q15 1 32 1q34 0 76 -3q79 -4 107 -4 q-9 17 -5 25q2 4 14 7q14 3 18 6q8 5 5 20q7 -1 13 -10q6 -8 13 -9q202 76 202 262q0 15 -1 30q-33 21 -45 110q-26 8 -60 8q-49 0 -114 -17q-57 -15 -104 -15q-40 0 -73 11q-1 -30 7 -39q1 2 -1 2q-8 0 -64 -41q-70 -49 -87 -136zM37 551q-1 -4 -1 -8q0 -12 10 -17 q8 11 7 36q0 27 -14 29q3 -12 -2 -40zM52 597q0 1 4 14q2 10 3 17q3 21 -7 28q8 -64 0 -59zM91 468q1 -105 46 -130q-11 17 -22 66q-11 46 -24 64zM117 656q68 163 71 163v-1q-72 -84 -72 -150q0 -6 1 -12zM137 565q5 -22 12 -62q8 -49 11 -64q16 -73 48 -101 q64 -15 133 -15q24 0 49 2q6 7 17 19q12 12 17 18q18 21 18 41q4 0 7 -6q2 -7 6 -7q74 151 74 293q0 89 -29 174q-51 28 -98 28q-75 0 -142 -70q-88 -93 -123 -250zM533 -67q13 -47 6 -46q-3 8 5 30q6 15 -11 16zM565 656q16 12 16 35v5q-2 22 -16 44q-1 -6 -1 -14 q0 -14 3 -34q3 -28 -2 -36z" />
<glyph unicode="h" horiz-adv-x="884" d="M-7 84q23 34 23 117q0 13 -1 27q-2 47 -2 80q0 54 5 73l12 16q12 15 12 16q1 6 -11 22q-13 17 -13 20q-3 14 -3 51t3 97q2 55 25 252q11 94 15 94q2 0 1 -20v-25q-3 105 -13 170q-9 67 -12 188q13 2 15 27q2 27 10 31q-21 10 -21 40q0 23 13 59q11 1 21 1q49 0 53 -34 q20 27 47 34q8 2 15 2q22 0 37 -20q-35 -281 -35 -619q0 -72 2 -147q30 20 59 86q32 72 56 96q4 3 17 3q13 1 16 5q11 13 39 65q23 43 44 58q2 2 32 2q18 0 9 23q16 -5 30 -5q29 0 44 22q67 0 125 -60q17 -19 46 -57q31 -42 44 -56q29 -94 30 -212q0 -288 -179 -712 q-31 34 -58 41v6q0 51 51 155q58 121 65 186q-86 -134 -124 -264q-4 -2 -10 -7t-9 -7q-11 -6 -22 5q-2 -12 4 -24q4 -8 -4 -17q-20 3 -36 27q-17 26 -30 31q77 153 106 383q10 78 19 203q12 174 15 206q2 12 -14 14q-18 3 -19 10q-107 -60 -115 -66q-145 -105 -195 -300 q-30 -114 -30 -277q0 -40 2 -82v-10q0 -98 -91 -98q-11 12 -3 49q9 36 -5 50q-9 -6 -23 -30q-12 -22 -26 -27q-12 4 -29 16q-18 13 -29 17zM100 166q22 24 24 77q1 13 0 47q0 32 1 49q12 180 12 328.5t-12 265.5q-2 -73 -16 -388q-9 -211 -9 -352v-27zM108 1072 q19 106 19 178q0 52 -10 87q-14 -126 -14 -199q0 -42 5 -66zM587 282q3 34 18 93q22 86 25 102q11 53 11 98q0 63 -21 111q2 -17 2 -38q0 -70 -19 -178q-18 -102 -18 -157q0 -18 2 -31z" />
<glyph unicode="i" horiz-adv-x="530" d="M-3 206q-3 19 -3 47.5t3 65.5q8 92 8 118q-1 39 -1 74q0 126 9 189q3 26 12 66q11 49 13 62q7 35 7 67q0 36 -9 68q7 -1 13 -1q31 0 56 20q44 37 67 45q11 -6 20 -39q9 -30 28 -33q-1 -26 -37 -319q-14 -117 -14 -210q0 -83 11 -148q-12 -20 -11 -51v-14q3 -54 3 -76v-10 q33 -16 65 -16q72 0 145 77q89 94 125 226q18 -3 44 8q20 8 35 -1q-3 -14 16 -15q-12 -72 -81 -151q-77 -88 -94 -136q-33 -17 -78 -54q-53 -45 -73 -58q-30 -4 -56 -4q-193 0 -223 203zM52 214q11 2 13 -2q1 -2 0 -10q-2 -12 14 -12h5q2 14 2 32q0 40 -8 100 q-10 81 -10 125v14q14 248 23 248q1 0 1 -1q17 30 18 81q0 43 -10 63q-34 -115 -43 -306q-2 -49 -5 -332zM86 1335q18 55 70 91q44 31 87 31q6 0 12 -1q53 -5 74 -57q9 -22 9 -45q0 -17 -5 -35q-12 -41 -46 -72q-35 -31 -82 -42q-20 -4 -41 -4q-32 0 -65 10q-21 38 -21 77 q0 23 8 47z" />
<glyph unicode="j" horiz-adv-x="510" d="M-36 -112q4 65 4 92q0 10 -1 15q26 10 41 -5q21 -22 33 -25q-3 -16 -3 -39q0 -59 22 -161q8 5 31 9q22 4 31 9q12 20 73 62q51 35 57 79h-1q-4 0 -4 5q0 24 104 166q1 44 6 105q5 83 6 100q2 27 3 86q2 57 4 91q1 17 1 41q0 118 -20 418q9 31 12 23q18 11 31 6 q0 39 19 59q59 -2 56 0q-31 -69 -31 -163q0 -31 4 -66q4 -40 16 -116q13 -77 17 -114q6 -60 6 -119q0 -237 -99 -451q12 -28 12 -58q0 -75 -74 -160q-17 -19 -41 -58q-21 -35 -40 -54q-45 -45 -103 -53q-9 -1 -17 -1q-56 0 -84 54q-5 9 -12 35q-6 24 -13 36q-6 10 -19 22 q-12 12 -12 13q-15 37 -15 96v21zM91 -299q3 -1 16 -18q5 -7 10.5 -7t10.5 7q-12 3 -10 10q5 13 4 19q-24 2 -31 -11zM146 -270q37 1 75 31q48 39 49 40q-24 20 -6 41q-15 -21 -60 -55q-43 -32 -58 -57zM262 1321q19 55 70 91q44 31 87 31q6 0 12 -1q54 -5 75 -57 q8 -21 8 -43q0 -18 -5 -37q-12 -41 -45 -72q-35 -31 -82 -42q-20 -4 -41 -4q-33 0 -66 10q-21 38 -21 77q0 23 8 47z" />
<glyph unicode="k" horiz-adv-x="827" d="M-23 92q1 16 18 27q23 13 26 18q-1 5 -1 12q0 30 12 83q12 55 12 85q0 6 -1 11q0 5 -8 18q-7 13 -6 19q1 7 11 22q10 14 11 22q36 522 36 962v46q12 6 27 6q48 0 121 -65q1 -86 1 -137.5t-1 -68.5q-2 5 22 0q-4 -81 -18 -99q-15 -19 -19 -106q32 10 72 73q37 58 68 59 q19 25 40 71q10 21 69 60q-2 20 9 39q12 23 13 35q6 -4 36 -3q18 1 16 -26q14 -2 32 8q16 10 34 6q13 -8 13 -36q0 -18 -6 -45q-147 -158 -256 -263q14 -23 29 -22q-4 -10 -4 -20q0 -29 32 -61q4 -4 39 -36q25 -22 37 -38q22 -30 46 -92q30 -76 35 -85q184 -355 198 -412 q3 -4 8 -11q4 -8 7 -12q10 -11 30 -7q8 -26 8 -51q0 -12 -2 -24q-7 -47 -43 -65q-18 6 -52 14q-27 6 -51 16q8 8 5 17q-5 17 -5 20q-59 47 -118 134q-5 9 -47 74q-28 44 -49 71q11 35 15 37q-93 325 -199 464q-19 -8 -28 -64q-8 -51 -38 -54q-1 -14 -1 -54q0 -54 2 -154v-26 q0 -111 -23 -185q16 -16 16 -72q0 -24 -3 -57q-9 -105 -35 -136q-6 4 -38 11q-20 5 -21 33q-20 -5 -34 -30q-18 -30 -25 -37q-65 28 -74 81zM95 85q40 62 43 150v19q0 76 -28 140q-10 -57 -10 -151q-1 -110 -5 -158zM139 903q37 340 37 396h-22q-2 -118 -13 -217 q-4 -40 -4 -94q0 -39 2 -85zM463 1094q1 2 21 29q13 17 -6 23q2 -10 -15 -27q-7 -7 -7 -13t7 -12zM500 1146q4 -2 8 -2q10 0 14 15q2 6 2 11q0 10 -9 12q-1 -3 -11 -14q-5 -6 -5 -14q0 -4 1 -8z" />
<glyph unicode="l" horiz-adv-x="474" d="M9 168q-10 168 -10 316q0 241 27 427q39 261 131 448q0 1 13 8q8 5 -2 15q15 -8 30 12q3 5 11 18q6 11 10 15q24 10 47 10q7 0 13 -1q31 -6 42 -31q15 3 28 -3q18 -8 23 -9q0 1 21 -36q12 -20 2 -43q18 11 17 11q16 -50 16 -112q0 -41 -7 -88v1l-37 -186q-3 -14 -9 -72 q-5 -40 -14 -59q-3 -7 -41 -93q-28 -64 -50 -100q-15 -25 -59 -77q-42 -51 -60 -82q-13 12 -34 -9q-10 -10 -14 -11q-8 -2 -14 9q5 -28 10 -86q7 -78 9 -100q15 -126 60 -172q17 -5 33 -5q50 0 89 46q16 18 45 62q31 46 49 68q61 73 68 107q10 47 13 54q15 28 55 15 q2 -4 2 -9q0 -7 -3 -18q-4 -19 1 -30q-155 -283 -312 -375q-9 0 -48 5q-34 4 -49 1q-6 48 -56 74q0 42 -46 85zM100 593q91 102 145 266q33 97 76 313q-6 24 -19 80q-12 52 -20 79h-6q-14 0 -26 -8q-18 -13 -25 -15q-70 -124 -97 -337q0 -3 -28 -378zM242 673 q102 155 130 380q-2 7 -11 6q-14 -24 -17 -68q-5 -50 -11 -68q-92 -261 -91 -250zM372 1240v-5q0 -34 12 -46q3 13 3 23q0 22 -15 28z" />
<glyph unicode="m" horiz-adv-x="1216" d="M-21 205q9 56 35 176q27 132 39 195q27 154 27 266q0 62 -8 111q18 7 32 21q14 13 29 17t17 -14t14 -16q14 31 33 45q11 7 22 7l30 -14q0 7 -24 -116q-7 -33 -7 -61q0 -41 15 -70q37 20 107 95q61 65 117 83q7 -1 16 -1q35 0 100 16q52 -30 68 -117q7 -37 7 -77 q0 -37 -6 -76q17 20 85 124q50 77 100 108q20 -9 50 -3q34 7 50 3q52 -15 108 -101q48 -73 62 -131q8 -35 8 -98q0 -26 -1 -58q-1 -26 -1 -49q0 -68 9 -103q-16 -34 -16 -80v-10q1 -53 24 -80q41 102 108 116q11 -22 11 -46q0 -41 -34 -86q-7 -8 -50 -57q-30 -34 -43 -58 q-21 22 -53 6q-40 -22 -47 -21q-3 25 -69 54q-1 18 -1 46q0 75 6 219q4 124 4 204q0 46 -1 78q-5 82 -8 92q-12 40 -55 40q-7 0 -15 -1v23q-122 -54 -195 -246q-2 -5 -90 -316q3 -14 -15 -16q-7 -107 -77 -239q-8 2 -23 20q-12 14 -31 11q-6 11 -6 23q0 20 16 45 q11 16 10 24q0 13 -20 24q30 36 30 30q0 6 -12 7q-11 2 -11 9q45 48 57 148q11 96 59 137q-1 25 -1 51q0 52 3 109q6 126 6 133q-46 37 -62 70q-8 1 -16 1q-29 0 -55 -17q-55 -36 -60 -38q-165 -379 -165 -646q0 -37 3 -72q-11 -3 -23 -25q-11 -22 -31 -28q-16 25 -43 16 q-51 -16 -57 -16q-30 18 -30 69q0 24 14 92q-5 14 -33 21q-29 8 -36 18z" />
<glyph unicode="n" horiz-adv-x="891" d="M-17 54q-1 6 -1 11q0 23 17 45q-6 37 -6 84q0 57 9 127q21 151 21 200q0 19 -9 56q-8 35 -7 52q1 23 1 88v41q0 38 1 62q5 127 38 192q28 -2 53.5 -2t50.5 2q9 -38 9 -68q0 -51 -25 -84q18 -71 21 -175v-23q0 -84 -13 -121q25 -8 39 8q10 11 20 42q13 38 19 49 q13 25 34 29q-5 20 0 40q98 107 120 151q14 3 82 48q42 28 72 28q11 0 21 -4q4 6 22 18q15 10 18 22q102 -20 154 -103q43 -68 55 -187q6 -55 6 -146q0 -34 -1 -74q-2 -58 -2 -102l4 -103q0 -11 -10 -18q-13 -10 -14 -18q-3 -13 2 -26q6 -15 6 -22q-27 -20 -48 -53 q-37 -62 -40 -66q-28 3 -56 24q-26 -40 -70 -40h-2q-10 4 -13 26q-4 24 -11 30q1 5 9 7h8t7 1q14 55 21 195q8 152 19 212q-34 97 -34 222q0 32 2 65q-18 5 -25 9q-10 9 -15 31q-204 -60 -299 -318q-58 -158 -92 -488q-11 12 -18 8q-4 -3 -13 -19q-16 -30 -39 -30 q-5 0 -10 1q-10 10 -8 48q-22 -5 -42 5q-23 12 -38 11z" />
<glyph unicode="o" horiz-adv-x="777" d="M4 313q-7 52 -7 105q0 146 52 303q37 109 97 175q45 48 86 48q31 0 59 -27q-2 8 -2 17q0 31 32 58q38 34 81 34q49 0 105 -44q28 -21 82 -76q49 -49 72 -65q53 -129 53 -258q0 -121 -47 -243q-95 -249 -323 -336q-17 -1 -32 -1q-63 0 -107 19q-52 23 -95 80 q-94 122 -106 211zM64 419q13 104 114 407q-63 -76 -95 -195q-23 -82 -23 -154q0 -30 4 -58zM115 352q8 -111 55 -175q-22 78 -22 159v14q1 32 6 87q7 77 9 102q-49 -55 -49 -155q0 -15 1 -32zM163 170q7 -31 31 -54q26 -25 52 -14q-20 5 -42 34q-21 29 -41 34zM163 547 q19 23 23 42q6 21 -1 56q31 43 64 122q36 86 57 120q-26 -4 -42 -45q-17 -41 -41 -46q-2 -22 -47 -121q-21 -49 -21 -86q0 -23 8 -42zM217 493q-10 -56 -10 -107q0 -71 20 -130q39 -115 147 -162q57 20 105 95q64 98 84 116q32 83 32 183q0 122 -48 270q-4 4 -15 12 q-10 7 -15 11q-16 15 -15 38q-23 1 -43 17q-4 3 -16 14q-9 9 -16 14q9 -4 9 15t-9 15q-70 -51 -129 -163q-60 -114 -81 -238zM321 909h5q15 0 39 15q25 17 39 38q-44 -6 -83 -53z" />
<glyph unicode="p" horiz-adv-x="714" d="M-60 -322q-1 2 -1 4q0 9 10 12q13 4 13 12q2 152 36 540q17 203 17 395q0 92 -4 181q5 1 3 10q0 7 18 4q-24 30 -24 83q0 12 1 26q6 64 51 64q10 0 22 -3q14 -202 14 -205q79 157 219 226q191 -50 282 -124q116 -94 116 -251q0 -21 -2 -42q-16 -10 -29 -56 q-12 -43 -35 -50q1 -10 -5 -27q-5 -15 -2 -30q-158 -222 -182 -247q-98 -99 -209 -99q-30 0 -61 7q-14 4 -23 -5q-10 -11 -20 -9q-2 37 -35 21q0 -5 7 92q-33 -129 -33 -256v-7q1 -73 1 -127q0 -89 -3 -125q6 -8 21 -14q-14 -5 -21 -28q-9 -29 -14 -36q-12 11 -33 0 q-15 -8 -17 15q-18 -26 -49 -36q-23 13 -21 45q1 33 -8 40zM103 221q19 -1 32 20q14 23 31 23q29 -6 58 -6q73 0 140 42q18 11 149 126q14 69 14 138q0 76 -17 152q-36 162 -132 212q-168 -69 -225 -280q-24 -89 -50 -427zM272 172q7 -1 4 -11q-3 -9 11 -10q5 17 62 32 q56 15 65 45q-50 8 -43 0q-3 -17 -44 -27q-44 -10 -55 -29zM569 772q-2 -6 -2 -13q0 -12 7 -26q9 -17 2 -24q14 2 14 19q0 4 -1 10q-4 24 -20 34z" />
<glyph unicode="q" horiz-adv-x="757" d="M9 435q-1 19 -1 45q0 38 2 91q2 52 2 85q0 22 -1 36q21 26 61 104q36 69 69 98q62 1 119 63q64 69 97 78h2q6 0 26 -6q18 -5 29 6q12 -15 54 -44q37 -25 47 -50q17 3 35 -2q22 -5 30 -5q4 -21 4 -44q1 -25 3 -43q20 -2 58 7q37 -66 37 -203q0 -41 -4 -113q-4 -74 -4 -101 q11 -265 11 -391q0 -75 -4 -101q-27 -128 -28 -128v1q-1 -13 -1 -26q0 -91 44 -148q-3 -32 -44 -61q-37 2 -52 39q-12 29 -5 55q-11 -13 -29 -53q-58 24 -65 40q20 122 20 269q0 119 -13 255q-80 -28 -184 -28t-234 28q-73 81 -81 247zM104 605q-5 -33 -5 -64q0 -94 44 -170 q65 -116 207 -135q127 34 165 154q13 42 13 113q0 30 -2 65q-3 49 -3 85q0 55 7 80q-17 8 -44 32q-34 29 -47 37q-33 24 -68 24q-25 0 -50 -13q-11 41 -39 47q-5 1 -10 1q-21 0 -52 -14q-10 -30 -62 -115q-46 -73 -54 -127zM328 954q8 2 51 3q40 1 57 4q-19 17 -49 17h-7 q-36 -1 -52 -24zM364 894q55 -10 144 -81q2 7 2 14q0 32 -45 54q-35 17 -68 17q-17 0 -33 -4zM580 -13q5 357 7 357v-1q-32 -65 -32 -161q0 -85 25 -195zM609 -81q36 105 36 103q1 5 1 12q0 34 -22 107q-3 -57 -9 -115q-6 -48 -6 -107zM622 247v-15q0 -43 16 -57 q-1 144 -14 161q1 -4 1 -15q0 -23 -3 -74zM631 444q-13 -32 -13 -54q0 -27 20 -40q1 18 1 33q0 49 -8 61z" />
<glyph unicode="r" horiz-adv-x="692" d="M-27 61q2 16 15 67q12 48 15 76q7 76 7 188q0 95 -5 217q-11 244 -11 343q0 23 1 38q24 26 50 27q29 0 42 -35q24 12 25 12q9 2 33 -4q16 -72 16 -188v-26q-1 -68 -1 -114q0 -61 2 -82q-1 -1 74 210q48 138 118 183q9 6 31 9q25 4 36 8q-3 -1 37 23q9 6 22 6q11 0 25 -4 q17 -4 37 -24q26 -27 38 -34q13 -8 29 6t38 2q46 -54 46 -127q0 -54 -25 -119q-45 -115 -146 -222q-20 -3 -41 6q-24 10 -35 10q2 11 8 31q5 19 7 28q5 31 -6 50q27 25 47 76t23 102v14q0 45 -17 71q-19 31 -57 31q-6 0 -13 -1q-21 -3 -34 -17q-95 -105 -209 -368 q-7 -59 -19 -282q-9 -172 -31 -253q-25 8 -50 0q-9 18 -9 52q0 25 5 58q13 82 13 119q0 7 -1 13q-25 -21 -30 -70q-1 -15 -2 -44q0 -31 -1 -45q-35 -25 -35 -65q0 -5 1 -10q-40 -4 -55 12q-9 10 -9 31q0 7 1 15z" />
<glyph unicode="s" horiz-adv-x="766" d="M-30 206q-1 7 -1 14q0 27 18 55h54q27 -89 133 -136q51 -23 111 -22q74 0 162 34q12 -1 24 -1q79 0 139 65q36 40 93 153q-7 12 -31 93q-106 80 -246 80q-24 0 -49 -2q-180 -18 -180 -22l1 -1q-69 21 -100 88q-21 46 -21 104q0 19 2 39q8 78 47 147q39 71 96 103 q2 1 34 2q24 1 28 21q48 -20 77 -23q26 -2 24 23q22 -28 65 -47q44 -20 67 -46q-1 -4 -1 -9q0 -23 21 -80q10 -27 10 -49q0 -27 -15 -48q-13 -3 -47 4q-21 4 -31 -12q-7 15 -21 63q-15 47 -26 68q-20 40 -46 40q-21 0 -46 -24q-10 -2 -14 6q-4 10 -9 10q-43 -44 -60 -100 q-8 -25 -8 -47q0 -36 21 -63q-13 2 -16 -7q5 -3 12 -4q6 -2 8 -4q8 -4 12 -23q62 -32 190 -38q140 -6 190 -25q17 -9 15 -38q4 1 7 8t9 7q97 -38 97 -171q0 -108 -51 -217h-31q-25 -79 -114 -128q-82 -45 -267 -50h-20q-94 0 -166 34q-87 42 -110 121q-33 21 -40 55z M144 725q17 3 23 42q7 40 -15 43q-4 -20 -4 -41q-1 -24 -4 -44zM152 694q-1 -8 -1 -15q0 -30 16 -55q24 9 37 9q18 0 19 -16q0 -4 -1 -8q-22 5 -37 41q-16 37 -33 44zM416 50q4 -1 9 -1q12 0 26 4q14 3 27 -3q-1 11 8 23q-12 6 -25 6l-17 -3q-20 -7 -28 -26z" />
<glyph unicode="t" horiz-adv-x="686" d="M-92 954v6q0 85 87 97q-8 15 -4 37q6 25 -4 50q9 1 19 -5q9 -7 21 -3q8 119 8 211q0 34 -1 64q13 13 27 13q8 0 18 -4q7 -3 16 -10t11 -7q8 -11 9 -46q1 -37 6 -49q18 16 20 57q1 43 12 54q68 -34 78 -34q2 0 1 2q-84 -260 -87 -260v1q32 -17 80 -16q19 0 39 2q58 8 84 8 q12 0 18 -2q10 -9 7 -22l-4 -12q-2 -8 -3 -13q7 -5 34 -10q23 -4 29 -14q-7 -67 -15 -87q-25 10 -78 10q-28 0 -63 -3q-51 -4 -86 -4q-39 0 -58 5q-32 -152 -32 -297q0 -103 16 -204q49 -302 237 -399q157 77 229 152q96 102 96 242q0 12 -1 24q17 7 24 24q18 4 34 -5 q19 -11 29 -11q12 -26 12 -43q0 -5 -1 -9q-1 -3 -27 -51q-13 -24 -50 -103q-32 -68 -55 -105q-70 -115 -163 -131q-66 -66 -160 -68h-6q-84 0 -150 52q-5 14 -29 90q-17 55 -31 87q-39 97 -98 139q-6 46 -6 107q0 82 11 192q20 176 20 267q0 19 -1 34q-42 -13 -71.5 -13 t-47.5 13zM106 1226v-9q0 -25 15 -43q-1 5 -1 12q0 18 7 53q2 9 2 16q0 22 -16 30q0 2 -7 -59z" />
<glyph unicode="u" horiz-adv-x="842" d="M-9 440q4 200 106 549q-1 0 54 8q3 -5 24 -44q12 -22 38 -34q-3 -8 -95 -209q-67 -145 -67 -246q0 -210 109 -317q54 -52 121 -56q6 0 12 -1q66 0 136 49q12 38 70 115q56 75 69 125q16 61 16 191v15q0 144 15 211q-3 31 -23 46q0 33 24 57q7 6 23 18q16 11 22 18 q24 -55 23 -70q30 22 41 76q13 64 29 86q17 -5 30 -27q17 -29 24 -34q-1 -73 -11 -196q-13 -165 -15 -207q-4 -69 -4 -133q0 -174 30 -306q-33 -14 -33 -46q0 -7 2 -16q-24 -20 -59 -27q-34 -7 -49 -20q-22 7 -39 55q-30 -34 -38 -47q-44 14 -44 70q0 7 5 58q3 35 0 58 q-24 -22 -53 -71q-34 -59 -47 -76q-118 -58 -196 -58q-19 0 -36 4q-214 95 -214 412v20zM638 100q34 102 34 156q0 31 -11 45q1 -6 1 -13q0 -32 -15 -88q-12 -42 -12 -72q0 -16 3 -28z" />
<glyph unicode="v" horiz-adv-x="813" d="M-10 930q11 40 56 63q45 -13 33 -17v1q2 0 26 -246q28 -61 92 -240q57 -156 102 -243q41 123 146 354q107 235 151 366q59 35 76 59h17h4q17 0 27 -15q18 -27 19 -28q4 4 25 9q17 4 18 17q35 -18 35 -85q0 -12 -1 -25q-43 -16 -94 -108q-23 -42 -38 -59q-25 -26 -55 -28 q-16 -66 -123 -310q-80 -183 -80 -326v-7q-21 -5 -44 -26q-25 -24 -49 -33v59q-22 -17 -36 -20q-4 -1 -16 -2q-13 -1 -24 -3q-10 28 -9.5 55.5t9.5 54.5q-1 1 -30 46q-18 28 -46 30q-36 71 -70 215q-33 137 -74 208q-2 40 -20 102q-24 85 -26 97q-6 27 -6 49q0 20 5 36z" />
<glyph unicode="w" horiz-adv-x="1206" d="M14 917q12 40 56 62q45 -12 33 -16v1q1 0 25 -243q27 -60 91 -236q56 -154 101 -240q40 121 144 349q105 232 148 360q58 35 75 59h17h4q17 0 27 -15q18 -26 19 -27q3 4 24 9q17 4 17 16q35 -18 35 -84q0 -11 -1 -24q-42 -16 -92 -107q-23 -41 -38 -58q-24 -26 -54 -27 q-15 -66 -121 -306q-79 -178 -79 -318v-10q-21 -5 -44 -26q-24 -24 -48 -33v59q-22 -17 -35 -20q-4 -1 -16 -2q-13 -1 -24 -3q-9 27 -9 54t9 54q-1 1 -29 46q-18 27 -46 29q-35 70 -69 213q-32 134 -73 204q-2 40 -19 101q-24 84 -26 96q-6 28 -6 50q0 19 4 33zM402 903 q12 39 55 62q46 -12 34 -17v1q1 0 25 -243q27 -60 91 -235q56 -155 101 -240q39 121 143 349q106 231 149 360q58 35 75 58h16h5q18 0 27 -14q17 -26 18 -27q4 4 25 9q17 4 17 16q34 -18 34 -82q0 -13 -1 -27q-41 -15 -91 -106q-23 -41 -39 -58q-24 -26 -53 -28 q-16 -65 -122 -305q-78 -177 -79 -319q0 -5 1 -10q-22 -5 -44 -26q-25 -23 -48 -32v58q-22 -17 -35 -20q-5 -1 -16 -2q-13 -1 -24 -3q-10 27 -10 54.5t10 54.5q-1 1 -30 45q-18 28 -45 30q-35 69 -69 212q-32 135 -73 205q-2 39 -20 101q-23 83 -26 96q-5 27 -5 48 q0 20 4 35z" />
<glyph unicode="x" horiz-adv-x="792" d="M-22 135q5 32 47 81q13 15 38 42q30 31 40 43q45 50 55 82q5 -1 12 -9q7 -7 13 -8q7 0 8 4q1 3 -3 7q-11 11 -22 6q96 134 120 155q-19 38 -101 128q-92 102 -122 147q-51 76 -51 97q1 36 85 66q23 -27 115 -171q77 -121 135 -173q5 7 69 75q41 46 66 78q71 94 88 200 q31 28 84 28h16q54 0 72 6q22 -60 22 -58q3 -12 3 -24q0 -29 -16 -55q-7 -11 -36 -26q-32 -16 -42 -26q-42 -45 -109 -164q-64 -114 -97 -145q222 -236 284 -301q-38 -111 -40 -116q-24 -52 -72 -82q-95 57 -112 77q-3 17 11 28q15 12 15 24q-15 45 -66 127q-48 78 -63 131 q-70 -67 -144 -191q-16 -27 -61 -107q-37 -68 -61 -106q-37 -10 -59 -10q-6 0 -10 1q-9 20 -9 39q0 32 24 63q27 35 28 38q13 21 8 41q-29 -35 -120 -112q-43 25 -43 61q0 4 1 9zM278 426q1 15 23 28q21 13 20 32h-3q-21 0 -37 -23q-9 -13 -9 -23q0 -8 6 -14zM562 306 q5 -36 30 -68q8 -9 24 -26q15 -17 23 -27q2 7 2 14q0 46 -79 107z" />
<glyph unicode="y" horiz-adv-x="672" d="M-3 398q-5 46 -5 95q0 115 29 249q12 52 49 135q37 85 46 123q29 -3 32 14q20 -7 63 -42q-7 -33 -46 -169q-33 -115 -43 -185q-6 -43 -6 -80q0 -152 103 -216q40 15 95 84q9 11 103 196q67 131 64 124q18 45 18 84q0 30 -11 57q21 23 21 62v7q-3 45 -29 64q23 32 48 37h7 q18 0 35 -14q32 -30 32 -72q0 -14 -3 -28q10 -10 28 -11q22 -2 35 -10q1 -5 1 -10q0 -21 -13 -51q-18 -46 -20 -65v-11q0 -33 13 -85q18 -70 19 -99v-14q0 -44 -10 -115q-13 -92 -14 -130q-1 -68 -3 -73v1q-1 0 -34 -63q-10 -141 -44 -233q-30 -83 -120 -224 q-48 -77 -55 -86q-30 -36 -79 -54q-42 69 -40 63q-6 -4 -17 -11q-11 -9 -16 -12q-22 -12 -54 -5q5 14 -4 20q-3 2 -10 4t-9 4q3 12 29 37q21 21 18 47q-1 -1 32 -7q159 193 195 296q11 33 69 373q-14 -9 -141 -180q-75 -103 -174 -103q-20 0 -41 4q-119 86 -143 278z M101 336q5 -14 13 -41q7 -24 11 -35q15 -35 47 -49q52 17 55 55q-6 -1 -12 -1q-39 0 -66 24q-7 6 -24 24q-14 16 -24 23zM279 -326q45 11 83 63q30 39 30 65q0 6 -2 11q-15 -31 -53 -72q-46 -51 -58 -67zM374 394q0 -23 27 -23q93 150 111 266q-3 7 -13 7h-3q0 -4 -5 -10 q-4 -5 -3 -11q-1 -28 -44 -91q-50 -73 -59 -98q-11 -33 -11 -40zM398 -180q78 71 82 81q1 3 16 138q-3 9 -16 7q-23 -108 -82 -226zM488 60q19 -3 24 23q5 25 -8 33q1 -14 -7 -29q-8 -17 -9 -27zM504 123q14 -2 21 -36q6 -31 -2 -31q-1 0 -3 1q0 -1 -1 -1q-4 0 -15 67z M529 136v-11q0 -12 1.5 -12t5.5 21q0 8 7 7q-10 10 4 34q4 7 4 12q0 11 -15 17q-6 -18 -7 -68z" />
<glyph unicode="z" horiz-adv-x="727" d="M-181 20q-1 6 -1 11q0 12 6 23q10 18 10 28q196 107 305 391q-80 2 -109 8q-5 24 -5 41.5t5 30.5q11 24 47 37q20 -9 117 -15q20 55 92 176q62 106 80 175q-193 -4 -328 -54q-10 0 -17 18q-7 16 -23 13q3 31 16 59q18 36 24 58q5 -1 6 -9q1 -2 1 -7v-7q43 -21 107 -21 q37 0 81 7q176 29 187 29q54 -29 61 -81q1 -8 1 -18q0 -37 -19 -88q-11 -30 -53 -114q-35 -70 -44 -105q10 -4 50 -3q39 1 51 -5q-4 -26 -29 -47q-24 -20 -25 -39q-11 1 -21 1q-76 0 -114 -80q-13 -28 -31 -86q-19 -61 -30 -85q15 3 33 3q35 0 77 -13q21 -7 115 -49 q97 -42 171 -42q44 0 81 15q0 7 -4 15q-5 9 -4 16q8 -7 21 -8q15 -2 10 16q30 -5 43 -44q1 -5 9 -33q5 -21 11 -32q-2 -2 -26 -9q-16 -5 -13 -23q-111 -25 -204 -25q-36 0 -69 4q-155 17 -220 115q-20 4 -41 4q-70 0 -138 -51q-22 -16 -62 -71q-33 -47 -55 -54q2 1 -49 11 q-14 3 -25 3q-25 0 -36 -14q-7 17 -23 24z" />
<glyph unicode="&#x2000;" horiz-adv-x="739" />
<glyph unicode="&#x2001;" horiz-adv-x="1478" />
<glyph unicode="&#x2002;" horiz-adv-x="739" />
<glyph unicode="&#x2003;" horiz-adv-x="1478" />
<glyph unicode="&#x2004;" horiz-adv-x="492" />
<glyph unicode="&#x2005;" horiz-adv-x="369" />
<glyph unicode="&#x2006;" horiz-adv-x="246" />
<glyph unicode="&#x2007;" horiz-adv-x="246" />
<glyph unicode="&#x2008;" horiz-adv-x="184" />
<glyph unicode="&#x2009;" horiz-adv-x="295" />
<glyph unicode="&#x200a;" horiz-adv-x="82" />
<glyph unicode="&#x202f;" horiz-adv-x="295" />
<glyph unicode="&#x205f;" horiz-adv-x="369" />
<glyph unicode="&#x25fc;" horiz-adv-x="1020" d="M0 0v1020h1020v-1020h-1020z" />
</font>
</defs>
</svg>
